<?xml version="1.0" encoding="UTF-8"?>
<svg version="1.1" xmlns="http://www.w3.org/2000/svg" width="512" height="512">
<path d="M0 0 C0.33 0.66 0.66 1.32 1 2 C1.99 2.33 2.98 2.66 4 3 C4.33 3.66 4.66 4.32 5 5 C5.99 5.33 6.98 5.66 8 6 C8.33 6.66 8.66 7.32 9 8 C9.99 8.33 10.98 8.66 12 9 C12.33 9.66 12.66 10.32 13 11 C13.99 11.33 14.98 11.66 16 12 C16.33 12.99 16.66 13.98 17 15 C18.91666667 16.16666667 18.91666667 16.16666667 21 17 C23 18 23 18 25 20 C26.34189957 20.67094978 27.69668689 21.31667586 29.0625 21.9375 C31 23 31 23 32 25 C32.99 25.33 33.98 25.66 35 26 C35.33 26.66 35.66 27.32 36 28 C36.99 28.33 37.98 28.66 39 29 C39.33 29.99 39.66 30.98 40 32 C41.91666667 33.16666667 41.91666667 33.16666667 44 34 C46 35 46 35 48 37 C49.34189957 37.67094978 50.69668689 38.31667586 52.0625 38.9375 C54 40 54 40 55 42 C55.99 42.33 56.98 42.66 58 43 C58.33 43.66 58.66 44.32 59 45 C59.99 45.33 60.98 45.66 62 46 C62.33 46.99 62.66 47.98 63 49 C64.91666667 50.16666667 64.91666667 50.16666667 67 51 C69 52 69 52 71 54 C72.34189957 54.67094978 73.69668689 55.31667586 75.0625 55.9375 C77 57 77 57 78 59 C78.99 59.33 79.98 59.66 81 60 C81.33 60.66 81.66 61.32 82 62 C82.99 62.33 83.98 62.66 85 63 C85.33 63.66 85.66 64.32 86 65 C86.99 65.33 87.98 65.66 89 66 C89.33 66.66 89.66 67.32 90 68 C90.66 68.33 91.32 68.66 92 69 C92.66 69.66 93.32 70.32 94 71 C95.33398422 71.66699211 96.68950779 72.29251846 98.0625 72.875 C100 74 100 74 101 77 C102.32 77.66 103.64 78.32 105 79 C105 193.51 105 308.02 105 426 C116.55 426 128.1 426 140 426 C140 430.95 140 435.9 140 441 C44.3 441 -51.4 441 -150 441 C-150 436.05 -150 431.1 -150 426 C-138.45 426 -126.9 426 -115 426 C-115.01665459 419.4891291 -115.01665459 419.4891291 -115.03364563 412.84672546 C-115.13306346 373.07649382 -115.20774699 333.30627685 -115.25532665 293.5359482 C-115.26158046 288.32743202 -115.26805204 283.11891613 -115.2746582 277.91040039 C-115.27596976 276.873444 -115.27728131 275.8364876 -115.2786326 274.76810829 C-115.300411 257.9603542 -115.33984588 241.1526853 -115.38576398 224.34498181 C-115.43246097 207.1088935 -115.46028107 189.87284991 -115.47044247 172.63670093 C-115.47731568 161.99423948 -115.49905234 151.35201879 -115.53958233 140.70963142 C-115.56593734 133.41958951 -115.57401749 126.12967272 -115.56750689 118.83958658 C-115.56429265 114.6285205 -115.5693459 110.41787617 -115.59602737 106.20688438 C-115.62025145 102.35577201 -115.62165931 98.50536736 -115.60449447 94.6542233 C-115.60237122 93.25712596 -115.60880627 91.85998554 -115.62441591 90.4629738 C-115.64433023 88.57154192 -115.63074083 86.67984427 -115.61523914 84.78837109 C-115.61808705 83.20892437 -115.61808705 83.20892437 -115.62099248 81.59756964 C-115 79 -115 79 -112.52404755 77.32572681 C-111.69111186 76.88823696 -110.85817617 76.45074711 -110 76 C-109.505 74.515 -109.505 74.515 -109 73 C-108.01 72.67 -107.02 72.34 -106 72 C-102.32687787 70.39300907 -99.81759803 68.63519607 -98 65 C-97.01 64.67 -96.02 64.34 -95 64 C-94.505 63.01 -94.505 63.01 -94 62 C-93.01 61.67 -92.02 61.34 -91 61 C-90.505 60.01 -90.505 60.01 -90 59 C-89.01 58.67 -88.02 58.34 -87 58 C-86.505 57.01 -86.505 57.01 -86 56 C-85.01 55.67 -84.02 55.34 -83 55 C-79.32687787 53.39300907 -76.81759803 51.63519607 -75 48 C-74.01 47.67 -73.02 47.34 -72 47 C-71.505 46.01 -71.505 46.01 -71 45 C-70.01 44.67 -69.02 44.34 -68 44 C-67.505 43.01 -67.505 43.01 -67 42 C-66.01 41.67 -65.02 41.34 -64 41 C-63.505 40.01 -63.505 40.01 -63 39 C-62.01 38.67 -61.02 38.34 -60 38 C-58.65909241 37.34870203 -57.32407669 36.68486725 -56 36 C-56 35.34 -56 34.68 -56 34 C-55.01 33.67 -54.02 33.34 -53 33 C-52.505 32.01 -52.505 32.01 -52 31 C-51.01 30.67 -50.02 30.34 -49 30 C-48.67 29.34 -48.34 28.68 -48 28 C-47.01 27.67 -46.02 27.34 -45 27 C-44.67 26.34 -44.34 25.68 -44 25 C-43.01 24.67 -42.02 24.34 -41 24 C-40.67 23.34 -40.34 22.68 -40 22 C-39.01 21.67 -38.02 21.34 -37 21 C-33.32687787 19.39300907 -30.81759803 17.63519607 -29 14 C-28.01 13.67 -27.02 13.34 -26 13 C-25.67 12.34 -25.34 11.68 -25 11 C-24.01 10.67 -23.02 10.34 -22 10 C-21.67 9.34 -21.34 8.68 -21 8 C-20.01 7.67 -19.02 7.34 -18 7 C-17.67 6.34 -17.34 5.68 -17 5 C-16.01 4.67 -15.02 4.34 -14 4 C-12.65909241 3.34870203 -11.32407669 2.68486725 -10 2 C-10 1.34 -10 0.68 -10 0 C-6.42742531 -1.23666047 -3.64473199 -0.89093449 0 0 Z M-89 94 C-89 103.24 -89 112.48 -89 122 C-88.67 122 -88.34 122 -88 122 C-88 112.76 -88 103.52 -88 94 C-88.33 94 -88.66 94 -89 94 Z M-87 94 C-87 94.33 -87 94.66 -87 95 C-78.75 95 -70.5 95 -62 95 C-62 94.67 -62 94.34 -62 94 C-70.25 94 -78.5 94 -87 94 Z M-61 94 C-61 103.24 -61 112.48 -61 122 C-60.67 122 -60.34 122 -60 122 C-60 112.76 -60 103.52 -60 94 C-60.33 94 -60.66 94 -61 94 Z M-19 94 C-19 103.24 -19 112.48 -19 122 C-18.67 122 -18.34 122 -18 122 C-18 112.76 -18 103.52 -18 94 C-18.33 94 -18.66 94 -19 94 Z M-17 94 C-17 94.33 -17 94.66 -17 95 C-9.08 95 -1.16 95 7 95 C7 94.67 7 94.34 7 94 C-0.92 94 -8.84 94 -17 94 Z M8 94 C8 103.24 8 112.48 8 122 C8.33 122 8.66 122 9 122 C9 112.76 9 103.52 9 94 C8.67 94 8.34 94 8 94 Z M50 94 C50 103.24 50 112.48 50 122 C50.33 122 50.66 122 51 122 C51 112.76 51 103.52 51 94 C50.67 94 50.34 94 50 94 Z M52 94 C52 94.33 52 94.66 52 95 C60.25 95 68.5 95 77 95 C77 94.67 77 94.34 77 94 C68.75 94 60.5 94 52 94 Z M78 94 C78 103.24 78 112.48 78 122 C78.33 122 78.66 122 79 122 C79 112.76 79 103.52 79 94 C78.67 94 78.34 94 78 94 Z M-87 96 C-87 103.92 -87 111.84 -87 120 C-78.75 120 -70.5 120 -62 120 C-62 112.08 -62 104.16 -62 96 C-70.25 96 -78.5 96 -87 96 Z M-17 96 C-17 103.92 -17 111.84 -17 120 C-9.08 120 -1.16 120 7 120 C7 112.08 7 104.16 7 96 C-0.92 96 -8.84 96 -17 96 Z M52 96 C52 103.92 52 111.84 52 120 C60.25 120 68.5 120 77 120 C77 112.08 77 104.16 77 96 C68.75 96 60.5 96 52 96 Z M-87 121 C-87 121.33 -87 121.66 -87 122 C-78.75 122 -70.5 122 -62 122 C-62 121.67 -62 121.34 -62 121 C-70.25 121 -78.5 121 -87 121 Z M-17 121 C-17 121.33 -17 121.66 -17 122 C-9.08 122 -1.16 122 7 122 C7 121.67 7 121.34 7 121 C-0.92 121 -8.84 121 -17 121 Z M52 121 C52 121.33 52 121.66 52 122 C60.25 122 68.5 122 77 122 C77 121.67 77 121.34 77 121 C68.75 121 60.5 121 52 121 Z M-89 160 C-89 169.57 -89 179.14 -89 189 C-88.67 189 -88.34 189 -88 189 C-88 179.43 -88 169.86 -88 160 C-88.33 160 -88.66 160 -89 160 Z M-87 160 C-87 160.33 -87 160.66 -87 161 C-78.75 161 -70.5 161 -62 161 C-62 160.67 -62 160.34 -62 160 C-70.25 160 -78.5 160 -87 160 Z M-61 160 C-61 169.57 -61 179.14 -61 189 C-60.67 189 -60.34 189 -60 189 C-60 179.43 -60 169.86 -60 160 C-60.33 160 -60.66 160 -61 160 Z M-19 160 C-19 169.57 -19 179.14 -19 189 C-18.67 189 -18.34 189 -18 189 C-18 179.43 -18 169.86 -18 160 C-18.33 160 -18.66 160 -19 160 Z M-17 160 C-17 160.33 -17 160.66 -17 161 C-9.08 161 -1.16 161 7 161 C7 160.67 7 160.34 7 160 C-0.92 160 -8.84 160 -17 160 Z M8 160 C8 169.57 8 179.14 8 189 C8.33 189 8.66 189 9 189 C9 179.43 9 169.86 9 160 C8.67 160 8.34 160 8 160 Z M50 160 C50 169.57 50 179.14 50 189 C50.33 189 50.66 189 51 189 C51 179.43 51 169.86 51 160 C50.67 160 50.34 160 50 160 Z M52 160 C52 160.33 52 160.66 52 161 C60.25 161 68.5 161 77 161 C77 160.67 77 160.34 77 160 C68.75 160 60.5 160 52 160 Z M78 160 C78 169.57 78 179.14 78 189 C78.33 189 78.66 189 79 189 C79 179.43 79 169.86 79 160 C78.67 160 78.34 160 78 160 Z M-87 162 C-87 170.25 -87 178.5 -87 187 C-78.75 187 -70.5 187 -62 187 C-62 178.75 -62 170.5 -62 162 C-70.25 162 -78.5 162 -87 162 Z M-17 162 C-17 170.25 -17 178.5 -17 187 C-9.08 187 -1.16 187 7 187 C7 178.75 7 170.5 7 162 C-0.92 162 -8.84 162 -17 162 Z M52 162 C52 170.25 52 178.5 52 187 C60.25 187 68.5 187 77 187 C77 178.75 77 170.5 77 162 C68.75 162 60.5 162 52 162 Z M-87 188 C-87 188.33 -87 188.66 -87 189 C-78.75 189 -70.5 189 -62 189 C-62 188.67 -62 188.34 -62 188 C-70.25 188 -78.5 188 -87 188 Z M-17 188 C-17 188.33 -17 188.66 -17 189 C-9.08 189 -1.16 189 7 189 C7 188.67 7 188.34 7 188 C-0.92 188 -8.84 188 -17 188 Z M52 188 C52 188.33 52 188.66 52 189 C60.25 189 68.5 189 77 189 C77 188.67 77 188.34 77 188 C68.75 188 60.5 188 52 188 Z M-89 226 C-89 235.57 -89 245.14 -89 255 C-88.67 255 -88.34 255 -88 255 C-88 245.43 -88 235.86 -88 226 C-88.33 226 -88.66 226 -89 226 Z M-61 226 C-61 235.57 -61 245.14 -61 255 C-60.67 255 -60.34 255 -60 255 C-60 245.43 -60 235.86 -60 226 C-60.33 226 -60.66 226 -61 226 Z M-19 226 C-19 235.57 -19 245.14 -19 255 C-18.67 255 -18.34 255 -18 255 C-18 245.43 -18 235.86 -18 226 C-18.33 226 -18.66 226 -19 226 Z M8 226 C8 235.57 8 245.14 8 255 C8.33 255 8.66 255 9 255 C9 245.43 9 235.86 9 226 C8.67 226 8.34 226 8 226 Z M50 226 C50 235.57 50 245.14 50 255 C50.33 255 50.66 255 51 255 C51 245.43 51 235.86 51 226 C50.67 226 50.34 226 50 226 Z M78 226 C78 235.57 78 245.14 78 255 C78.33 255 78.66 255 79 255 C79 245.43 79 235.86 79 226 C78.67 226 78.34 226 78 226 Z M-87 227 C-87 235.58 -87 244.16 -87 253 C-78.75 253 -70.5 253 -62 253 C-62 244.42 -62 235.84 -62 227 C-70.25 227 -78.5 227 -87 227 Z M-17 227 C-17 235.58 -17 244.16 -17 253 C-9.08 253 -1.16 253 7 253 C7 244.42 7 235.84 7 227 C-0.92 227 -8.84 227 -17 227 Z M52 227 C52 235.58 52 244.16 52 253 C60.25 253 68.5 253 77 253 C77 244.42 77 235.84 77 227 C68.75 227 60.5 227 52 227 Z M-87 254 C-87 254.33 -87 254.66 -87 255 C-78.75 255 -70.5 255 -62 255 C-62 254.67 -62 254.34 -62 254 C-70.25 254 -78.5 254 -87 254 Z M-17 254 C-17 254.33 -17 254.66 -17 255 C-9.08 255 -1.16 255 7 255 C7 254.67 7 254.34 7 254 C-0.92 254 -8.84 254 -17 254 Z M52 254 C52 254.33 52 254.66 52 255 C60.25 255 68.5 255 77 255 C77 254.67 77 254.34 77 254 C68.75 254 60.5 254 52 254 Z M-89 293 C-89 302.57 -89 312.14 -89 322 C-88.67 322 -88.34 322 -88 322 C-88 312.43 -88 302.86 -88 293 C-88.33 293 -88.66 293 -89 293 Z M-87 293 C-87 293.33 -87 293.66 -87 294 C-78.75 294 -70.5 294 -62 294 C-62 293.67 -62 293.34 -62 293 C-70.25 293 -78.5 293 -87 293 Z M-61 293 C-61 302.57 -61 312.14 -61 322 C-60.67 322 -60.34 322 -60 322 C-60 312.43 -60 302.86 -60 293 C-60.33 293 -60.66 293 -61 293 Z M-19 293 C-19 302.57 -19 312.14 -19 322 C-18.67 322 -18.34 322 -18 322 C-18 312.43 -18 302.86 -18 293 C-18.33 293 -18.66 293 -19 293 Z M-17 293 C-17 293.33 -17 293.66 -17 294 C-9.08 294 -1.16 294 7 294 C7 293.67 7 293.34 7 293 C-0.92 293 -8.84 293 -17 293 Z M8 293 C8 302.57 8 312.14 8 322 C8.33 322 8.66 322 9 322 C9 312.43 9 302.86 9 293 C8.67 293 8.34 293 8 293 Z M50 293 C50 302.57 50 312.14 50 322 C50.33 322 50.66 322 51 322 C51 312.43 51 302.86 51 293 C50.67 293 50.34 293 50 293 Z M52 293 C52 293.33 52 293.66 52 294 C60.25 294 68.5 294 77 294 C77 293.67 77 293.34 77 293 C68.75 293 60.5 293 52 293 Z M78 293 C78 302.57 78 312.14 78 322 C78.33 322 78.66 322 79 322 C79 312.43 79 302.86 79 293 C78.67 293 78.34 293 78 293 Z M-87 295 C-87 303.58 -87 312.16 -87 321 C-78.75 321 -70.5 321 -62 321 C-62 312.42 -62 303.84 -62 295 C-70.25 295 -78.5 295 -87 295 Z M-17 295 C-17 303.58 -17 312.16 -17 321 C-9.08 321 -1.16 321 7 321 C7 312.42 7 303.84 7 295 C-0.92 295 -8.84 295 -17 295 Z M52 295 C52 303.58 52 312.16 52 321 C60.25 321 68.5 321 77 321 C77 312.42 77 303.84 77 295 C68.75 295 60.5 295 52 295 Z M-89 359 C-89 368.57 -89 378.14 -89 388 C-88.67 388 -88.34 388 -88 388 C-88 378.43 -88 368.86 -88 359 C-88.33 359 -88.66 359 -89 359 Z M-87 359 C-87 359.33 -87 359.66 -87 360 C-78.75 360 -70.5 360 -62 360 C-62 359.67 -62 359.34 -62 359 C-70.25 359 -78.5 359 -87 359 Z M-61 359 C-61 368.57 -61 378.14 -61 388 C-60.67 388 -60.34 388 -60 388 C-60 378.43 -60 368.86 -60 359 C-60.33 359 -60.66 359 -61 359 Z M-19 359 C-19 368.57 -19 378.14 -19 388 C-18.67 388 -18.34 388 -18 388 C-18 378.43 -18 368.86 -18 359 C-18.33 359 -18.66 359 -19 359 Z M-17 359 C-17 359.33 -17 359.66 -17 360 C-9.08 360 -1.16 360 7 360 C7 359.67 7 359.34 7 359 C-0.92 359 -8.84 359 -17 359 Z M8 359 C8 368.57 8 378.14 8 388 C8.33 388 8.66 388 9 388 C9 378.43 9 368.86 9 359 C8.67 359 8.34 359 8 359 Z M50 359 C50 381.77 50 404.54 50 428 C50.33 428 50.66 428 51 428 C51 405.23 51 382.46 51 359 C50.67 359 50.34 359 50 359 Z M52 359 C52 359.33 52 359.66 52 360 C60.25 360 68.5 360 77 360 C77 359.67 77 359.34 77 359 C68.75 359 60.5 359 52 359 Z M78 359 C78 381.77 78 404.54 78 428 C78.33 428 78.66 428 79 428 C79 405.23 79 382.46 79 359 C78.67 359 78.34 359 78 359 Z M-87 361 C-87 369.25 -87 377.5 -87 386 C-78.75 386 -70.5 386 -62 386 C-62 377.75 -62 369.5 -62 361 C-70.25 361 -78.5 361 -87 361 Z M-17 361 C-17 369.25 -17 377.5 -17 386 C-9.08 386 -1.16 386 7 386 C7 377.75 7 369.5 7 361 C-0.92 361 -8.84 361 -17 361 Z M52 361 C52 382.45 52 403.9 52 426 C60.25 426 68.5 426 77 426 C77 404.55 77 383.1 77 361 C68.75 361 60.5 361 52 361 Z M-87 387 C-87 387.33 -87 387.66 -87 388 C-78.75 388 -70.5 388 -62 388 C-62 387.67 -62 387.34 -62 387 C-70.25 387 -78.5 387 -87 387 Z M-17 387 C-17 387.33 -17 387.66 -17 388 C-9.08 388 -1.16 388 7 388 C7 387.67 7 387.34 7 387 C-0.92 387 -8.84 387 -17 387 Z M52 427 C52 427.33 52 427.66 52 428 C60.25 428 68.5 428 77 428 C77 427.67 77 427.34 77 427 C68.75 427 60.5 427 52 427 Z " fill="#232323" transform="translate(261,50)"/>
<path d="M0 0 C2.875 -0.1875 2.875 -0.1875 6 0 C6.99 1.485 6.99 1.485 8 3 C8.99 3.33 9.98 3.66 11 4 C11.33 4.66 11.66 5.32 12 6 C12.99 6.33 13.98 6.66 15 7 C15.33 7.99 15.66 8.98 16 10 C17.78942796 11.41554859 17.78942796 11.41554859 19.9375 12.625 C20.64777344 13.05039062 21.35804688 13.47578125 22.08984375 13.9140625 C24.04625795 15.02629798 26.01385334 16.00629697 28.0625 16.9375 C30 18 30 18 31 20 C31.99 20.33 32.98 20.66 34 21 C34.33 21.66 34.66 22.32 35 23 C35.99 23.33 36.98 23.66 38 24 C38.33 24.99 38.66 25.98 39 27 C40.78942796 28.41554859 40.78942796 28.41554859 42.9375 29.625 C43.64777344 30.05039062 44.35804688 30.47578125 45.08984375 30.9140625 C47.04625795 32.02629798 49.01385334 33.00629697 51.0625 33.9375 C53 35 53 35 54 37 C54.99 37.33 55.98 37.66 57 38 C57.33 38.66 57.66 39.32 58 40 C58.99 40.33 59.98 40.66 61 41 C61.33 41.66 61.66 42.32 62 43 C62.99 43.33 63.98 43.66 65 44 C65.33 44.99 65.66 45.98 66 47 C67.91666667 48.16666667 67.91666667 48.16666667 70 49 C70.66 49.33 71.32 49.66 72 50 C72.680625 50.309375 73.36125 50.61875 74.0625 50.9375 C76 52 76 52 77 54 C77.99 54.33 78.98 54.66 80 55 C80.33 55.66 80.66 56.32 81 57 C81.99 57.33 82.98 57.66 84 58 C84.33 58.66 84.66 59.32 85 60 C85.99 60.33 86.98 60.66 88 61 C88.33 61.99 88.66 62.98 89 64 C90.91666667 65.16666667 90.91666667 65.16666667 93 66 C93.66 66.33 94.32 66.66 95 67 C95.680625 67.309375 96.36125 67.61875 97.0625 67.9375 C99 69 99 69 100 71 C100.99 71.33 101.98 71.66 103 72 C103.33 72.66 103.66 73.32 104 74 C104.99 74.33 105.98 74.66 107 75 C107.33 75.66 107.66 76.32 108 77 C108.99 77.33 109.98 77.66 111 78 C111.33 78.99 111.66 79.98 112 81 C113.91666667 82.16666667 113.91666667 82.16666667 116 83 C116.66 83.33 117.32 83.66 118 84 C118.680625 84.309375 119.36125 84.61875 120.0625 84.9375 C122 86 122 86 123 88 C123.99 88.33 124.98 88.66 126 89 C126.33 89.66 126.66 90.32 127 91 C127.99 91.33 128.98 91.66 130 92 C130.33 92.66 130.66 93.32 131 94 C131.99 94.33 132.98 94.66 134 95 C134.33 95.99 134.66 96.98 135 98 C137.50447516 99.21869929 137.50447516 99.21869929 140 100 C140 100.99 140 101.98 140 103 C138.13308826 104.01501998 136.25604656 105.01142079 134.375 106 C132.80878906 106.8353125 132.80878906 106.8353125 131.2109375 107.6875 C127.85853405 109.0578255 125.58045064 109.2580505 122 109 C121.67 108.34 121.34 107.68 121 107 C120.01 106.67 119.02 106.34 118 106 C117.67 105.34 117.34 104.68 117 104 C116.01 103.67 115.02 103.34 114 103 C113.67 102.34 113.34 101.68 113 101 C112.01 100.67 111.02 100.34 110 100 C109.67 99.34 109.34 98.68 109 98 C108.01 97.67 107.02 97.34 106 97 C105.67 96.34 105.34 95.68 105 95 C104.01 94.67 103.02 94.34 102 94 C101.67 93.34 101.34 92.68 101 92 C99.65810043 91.32905022 98.30331311 90.68332414 96.9375 90.0625 C95 89 95 89 94 87 C93.01 86.67 92.02 86.34 91 86 C90.67 85.34 90.34 84.68 90 84 C89.01 83.67 88.02 83.34 87 83 C86.67 82.34 86.34 81.68 86 81 C85.01 80.67 84.02 80.34 83 80 C82.67 79.01 82.34 78.02 82 77 C80.08333333 75.83333333 80.08333333 75.83333333 78 75 C77.34 74.67 76.68 74.34 76 74 C75.319375 73.690625 74.63875 73.38125 73.9375 73.0625 C72 72 72 72 71 70 C70.01 69.67 69.02 69.34 68 69 C67.67 68.34 67.34 67.68 67 67 C66.01 66.67 65.02 66.34 64 66 C63.67 65.34 63.34 64.68 63 64 C62.01 63.67 61.02 63.34 60 63 C59.67 62.01 59.34 61.02 59 60 C57.08333333 58.83333333 57.08333333 58.83333333 55 58 C54.34 57.67 53.68 57.34 53 57 C52.319375 56.690625 51.63875 56.38125 50.9375 56.0625 C49 55 49 55 48 53 C47.01 52.67 46.02 52.34 45 52 C44.67 51.34 44.34 50.68 44 50 C43.01 49.67 42.02 49.34 41 49 C40.67 48.34 40.34 47.68 40 47 C39.01 46.67 38.02 46.34 37 46 C36.67 45.01 36.34 44.02 36 43 C34.08333333 41.83333333 34.08333333 41.83333333 32 41 C30 40 30 40 28 38 C26.65810043 37.32905022 25.30331311 36.68332414 23.9375 36.0625 C22 35 22 35 21 33 C20.01 32.67 19.02 32.34 18 32 C17.67 31.34 17.34 30.68 17 30 C16.01 29.67 15.02 29.34 14 29 C13.67 28.01 13.34 27.02 13 26 C11.08333333 24.83333333 11.08333333 24.83333333 9 24 C7 23 7 23 5 21 C2.41645782 20.83312552 2.41645782 20.83312552 0 21 C-0.33 21.99 -0.66 22.98 -1 24 C-2.32796291 24.35412344 -3.66216607 24.68521554 -5 25 C-6.87256482 26.59514781 -7.89802585 27.7960517 -9 30 C-10.485 30.495 -10.485 30.495 -12 31 C-12.33 31.66 -12.66 32.32 -13 33 C-14.485 33.495 -14.485 33.495 -16 34 C-16.495 34.99 -16.495 34.99 -17 36 C-18.485 36.495 -18.485 36.495 -20 37 C-20.495 37.99 -20.495 37.99 -21 39 C-22.485 39.495 -22.485 39.495 -24 40 C-27.67312213 41.60699093 -30.18240197 43.36480393 -32 47 C-33.485 47.495 -33.485 47.495 -35 48 C-35.495 48.99 -35.495 48.99 -36 50 C-37.485 50.495 -37.485 50.495 -39 51 C-39.495 51.99 -39.495 51.99 -40 53 C-41.485 53.495 -41.485 53.495 -43 54 C-43.495 54.99 -43.495 54.99 -44 56 C-45.485 56.495 -45.485 56.495 -47 57 C-50.67312213 58.60699093 -53.18240197 60.36480393 -55 64 C-56.485 64.495 -56.485 64.495 -58 65 C-58.33 65.66 -58.66 66.32 -59 67 C-60.485 67.495 -60.485 67.495 -62 68 C-62.33 68.66 -62.66 69.32 -63 70 C-64.485 70.495 -64.485 70.495 -66 71 C-66.33 71.66 -66.66 72.32 -67 73 C-68.485 73.495 -68.485 73.495 -70 74 C-71.34090759 74.65129797 -72.67592331 75.31513275 -74 76 C-74 76.66 -74 77.32 -74 78 C-74.99 78.33 -75.98 78.66 -77 79 C-77.33 79.66 -77.66 80.32 -78 81 C-78.99 81.33 -79.98 81.66 -81 82 C-81.33 82.66 -81.66 83.32 -82 84 C-82.99 84.33 -83.98 84.66 -85 85 C-85.33 85.66 -85.66 86.32 -86 87 C-86.99 87.33 -87.98 87.66 -89 88 C-89.33 88.66 -89.66 89.32 -90 90 C-90.99 90.33 -91.98 90.66 -93 91 C-94.34090759 91.65129797 -95.67592331 92.31513275 -97 93 C-97 93.66 -97 94.32 -97 95 C-97.598125 95.103125 -98.19625 95.20625 -98.8125 95.3125 C-101.31803315 96.09995328 -102.32759243 97.00903861 -104 99 C-104.33 99.66 -104.66 100.32 -105 101 C-106.485 101.495 -106.485 101.495 -108 102 C-108.33 102.66 -108.66 103.32 -109 104 C-110.485 104.495 -110.485 104.495 -112 105 C-112.33 105.66 -112.66 106.32 -113 107 C-119.80976738 109.26992246 -123.2464566 108.34905857 -130 106 C-130.99 105.67 -131.98 105.34 -133 105 C-133.495 102.525 -133.495 102.525 -134 100 C-133.01 99.505 -133.01 99.505 -132 99 C-131.505 98.01 -131.505 98.01 -131 97 C-129.515 96.505 -129.515 96.505 -128 96 C-127.505 95.01 -127.505 95.01 -127 94 C-125.515 93.505 -125.515 93.505 -124 93 C-123.505 92.01 -123.505 92.01 -123 91 C-121.515 90.505 -121.515 90.505 -120 90 C-119.505 89.01 -119.505 89.01 -119 88 C-117.515 87.505 -117.515 87.505 -116 87 C-114.65909241 86.34870203 -113.32407669 85.68486725 -112 85 C-112 84.34 -112 83.68 -112 83 C-110.515 82.505 -110.515 82.505 -109 82 C-108.67 81.34 -108.34 80.68 -108 80 C-106.515 79.505 -106.515 79.505 -105 79 C-104.67 78.34 -104.34 77.68 -104 77 C-102.515 76.505 -102.515 76.505 -101 76 C-100.67 75.34 -100.34 74.68 -100 74 C-99.01 73.67 -98.02 73.34 -97 73 C-96.67 72.34 -96.34 71.68 -96 71 C-95.01 70.67 -94.02 70.34 -93 70 C-91.65909241 69.34870203 -90.32407669 68.68486725 -89 68 C-89 67.34 -89 66.68 -89 66 C-88.401875 65.896875 -87.80375 65.79375 -87.1875 65.6875 C-84.68196685 64.90004672 -83.67240757 63.99096139 -82 62 C-81.505 61.01 -81.505 61.01 -81 60 C-80.01 59.67 -79.02 59.34 -78 59 C-77.505 58.01 -77.505 58.01 -77 57 C-76.01 56.67 -75.02 56.34 -74 56 C-73.505 55.01 -73.505 55.01 -73 54 C-71 53.33333333 -69 52.66666667 -67 52 C-66.67 39.13 -66.34 26.26 -66 13 C-56.43 13 -46.86 13 -37 13 C-36.505 20.425 -36.505 20.425 -36 28 C-36 23.38 -36 18.76 -36 14 C-35.67 14 -35.34 14 -35 14 C-35 17.96 -35 21.92 -35 26 C-34.01 25.67 -33.02 25.34 -32 25 C-31.67 24.34 -31.34 23.68 -31 23 C-30.01 22.67 -29.02 22.34 -28 22 C-27.67 21.34 -27.34 20.68 -27 20 C-26.01 19.67 -25.02 19.34 -24 19 C-23.67 18.34 -23.34 17.68 -23 17 C-22.01 16.67 -21.02 16.34 -20 16 C-16.32687787 14.39300907 -13.81759803 12.63519607 -12 9 C-11.01 8.67 -10.02 8.34 -9 8 C-8.67 7.34 -8.34 6.68 -8 6 C-7.01 5.67 -6.02 5.34 -5 5 C-4.67 4.34 -4.34 3.68 -4 3 C-3.01 2.67 -2.02 2.34 -1 2 C-0.67 1.34 -0.34 0.68 0 0 Z " fill="#222222" transform="translate(253,20)"/>
<path d="M0 0 C95.7 0 191.4 0 290 0 C290 0.33 290 0.66 290 1 C194.3 1 98.6 1 0 1 C0 0.67 0 0.34 0 0 Z " fill="#222222" transform="translate(111,492)"/>
<path d="M0 0 C0.33 0 0.66 0 1 0 C1 12.54 1 25.08 1 38 C0.67 38 0.34 38 0 38 C0 25.46 0 12.92 0 0 Z " fill="#232323" transform="translate(185,34)"/>
<path d="M0 0 C8.91 0 17.82 0 27 0 C27 0.33 27 0.66 27 1 C18.09 1 9.18 1 0 1 C0 0.67 0 0.34 0 0 Z " fill="#232323" transform="translate(188,31)"/>
<path d="M0 0 C0.33 0 0.66 0 1 0 C1 4.29 1 8.58 1 13 C0.67 13 0.34 13 0 13 C0 8.71 0 4.42 0 0 Z " fill="#222222" transform="translate(109,478)"/>
<path d="M0 0 C0.33 0 0.66 0 1 0 C1 4.29 1 8.58 1 13 C0.67 13 0.34 13 0 13 C0 8.71 0 4.42 0 0 Z " fill="#232323" transform="translate(402,478)"/>
<path d="M0 0 C3 1 3 1 3 1 Z " fill="#222222" transform="translate(378,130)"/>
<path d="M0 0 C3 1 3 1 3 1 Z " fill="#222222" transform="translate(131,130)"/>
<path d="M0 0 C2 1 2 1 2 1 Z " fill="#232323" transform="translate(381,129)"/>
<path d="M0 0 C2 1 2 1 2 1 Z " fill="#222222" transform="translate(129,129)"/>
<path d="M0 0 C2 1 2 1 2 1 Z " fill="#232323" transform="translate(383,128)"/>
<path d="M0 0 C2 1 2 1 2 1 Z " fill="#222222" transform="translate(127,128)"/>
<path d="M0 0 C2 1 2 1 2 1 Z " fill="#232323" transform="translate(385,127)"/>
<path d="M0 0 C2 1 2 1 2 1 Z " fill="#232323" transform="translate(125,127)"/>
<path d="M0 0 C2 1 2 1 2 1 Z " fill="#242424" transform="translate(387,126)"/>
<path d="M0 0 C2 1 2 1 2 1 Z " fill="#232323" transform="translate(123,126)"/>
<path d="M0 0 C2 1 2 1 2 1 Z " fill="#232323" transform="translate(389,125)"/>
<path d="M0 0 C2 1 2 1 2 1 Z " fill="#232323" transform="translate(159,118)"/>
<path d="M0 0 C2 1 2 1 2 1 Z " fill="#232323" transform="translate(388,117)"/>
<path d="M0 0 C2 1 2 1 2 1 Z " fill="#232323" transform="translate(150,117)"/>
<path d="M0 0 C2 1 2 1 2 1 Z " fill="#232323" transform="translate(182,101)"/>
<path d="M0 0 C2 1 2 1 2 1 Z " fill="#222222" transform="translate(365,100)"/>
<path d="M0 0 C2 1 2 1 2 1 Z " fill="#232323" transform="translate(324,98)"/>
<path d="M0 0 C2 1 2 1 2 1 Z " fill="#232323" transform="translate(333,97)"/>
<path d="M0 0 C2 1 2 1 2 1 Z " fill="#232323" transform="translate(342,83)"/>
<path d="M0 0 C2 1 2 1 2 1 Z " fill="#232323" transform="translate(168,83)"/>
<path d="M0 0 C2 1 2 1 2 1 Z " fill="#222222" transform="translate(301,81)"/>
<path d="M0 0 C2 1 2 1 2 1 Z " fill="#232323" transform="translate(310,80)"/>
<path d="M0 0 C2 1 2 1 2 1 Z " fill="#222222" transform="translate(200,80)"/>
<path d="M0 0 C2 1 2 1 2 1 Z " fill="#232323" transform="translate(228,67)"/>
<path d="M0 0 C2 1 2 1 2 1 Z " fill="#232323" transform="translate(319,66)"/>
<path d="M0 0 C2 1 2 1 2 1 Z " fill="#232323" transform="translate(278,64)"/>
<path d="M0 0 C2 1 2 1 2 1 Z " fill="#222222" transform="translate(287,63)"/>
<path d="M0 0 C2 1 2 1 2 1 Z " fill="#222222" transform="translate(223,63)"/>
<path d="M0 0 C2 1 2 1 2 1 Z " fill="#232323" transform="translate(296,49)"/>
<path d="M0 0 C2 1 2 1 2 1 Z " fill="#222222" transform="translate(255,47)"/>
<path d="M0 0 C2 1 2 1 2 1 Z " fill="#222222" transform="translate(292,46)"/>
<path d="M0 0 C2 1 2 1 2 1 Z " fill="#232323" transform="translate(264,46)"/>
<path d="M0 0 C2 1 2 1 2 1 Z " fill="#232323" transform="translate(246,46)"/>
<path d="M0 0 C2 1 2 1 2 1 Z " fill="#222222" transform="translate(273,32)"/>
<path d="M0 0 C2 1 2 1 2 1 Z " fill="#232323" transform="translate(237,32)"/>
<path d="M0 0 C2 1 2 1 2 1 Z " fill="#232323" transform="translate(269,29)"/>
<path d="M0 0 C2 1 2 1 2 1 Z " fill="#242424" transform="translate(255,19)"/>
<path d="" fill="#222222" transform="translate(0,0)"/>
<path d="" fill="#232323" transform="translate(0,0)"/>
<path d="" fill="#232323" transform="translate(0,0)"/>
<path d="" fill="#232323" transform="translate(0,0)"/>
<path d="" fill="#232323" transform="translate(0,0)"/>
<path d="" fill="#232323" transform="translate(0,0)"/>
<path d="" fill="#222222" transform="translate(0,0)"/>
<path d="" fill="#222222" transform="translate(0,0)"/>
<path d="" fill="#222222" transform="translate(0,0)"/>
<path d="" fill="#232323" transform="translate(0,0)"/>
<path d="" fill="#232323" transform="translate(0,0)"/>
<path d="" fill="#222222" transform="translate(0,0)"/>
<path d="" fill="#232323" transform="translate(0,0)"/>
<path d="" fill="#242424" transform="translate(0,0)"/>
<path d="" fill="#242424" transform="translate(0,0)"/>
<path d="" fill="#232323" transform="translate(0,0)"/>
<path d="" fill="#232323" transform="translate(0,0)"/>
<path d="" fill="#232323" transform="translate(0,0)"/>
<path d="" fill="#222222" transform="translate(0,0)"/>
<path d="" fill="#232323" transform="translate(0,0)"/>
<path d="" fill="#232323" transform="translate(0,0)"/>
<path d="" fill="#242424" transform="translate(0,0)"/>
<path d="" fill="#222222" transform="translate(0,0)"/>
<path d="" fill="#232323" transform="translate(0,0)"/>
<path d="" fill="#232323" transform="translate(0,0)"/>
<path d="" fill="#232323" transform="translate(0,0)"/>
<path d="" fill="#232323" transform="translate(0,0)"/>
<path d="" fill="#222222" transform="translate(0,0)"/>
<path d="" fill="#232323" transform="translate(0,0)"/>
<path d="" fill="#232323" transform="translate(0,0)"/>
<path d="" fill="#222222" transform="translate(0,0)"/>
<path d="" fill="#222222" transform="translate(0,0)"/>
<path d="" fill="#222222" transform="translate(0,0)"/>
<path d="" fill="#222222" transform="translate(0,0)"/>
<path d="" fill="#222222" transform="translate(0,0)"/>
<path d="" fill="#242424" transform="translate(0,0)"/>
<path d="" fill="#232323" transform="translate(0,0)"/>
<path d="" fill="#212121" transform="translate(0,0)"/>
<path d="" fill="#232323" transform="translate(0,0)"/>
<path d="" fill="#212121" transform="translate(0,0)"/>
<path d="" fill="#232323" transform="translate(0,0)"/>
<path d="" fill="#242424" transform="translate(0,0)"/>
<path d="" fill="#232323" transform="translate(0,0)"/>
<path d="" fill="#232323" transform="translate(0,0)"/>
<path d="" fill="#242424" transform="translate(0,0)"/>
<path d="" fill="#242424" transform="translate(0,0)"/>
<path d="" fill="#232323" transform="translate(0,0)"/>
<path d="" fill="#222222" transform="translate(0,0)"/>
<path d="" fill="#222222" transform="translate(0,0)"/>
<path d="" fill="#232323" transform="translate(0,0)"/>
<path d="" fill="#232323" transform="translate(0,0)"/>
<path d="" fill="#222222" transform="translate(0,0)"/>
<path d="" fill="#222222" transform="translate(0,0)"/>
<path d="" fill="#232323" transform="translate(0,0)"/>
<path d="" fill="#232323" transform="translate(0,0)"/>
<path d="" fill="#232323" transform="translate(0,0)"/>
<path d="" fill="#232323" transform="translate(0,0)"/>
<path d="" fill="#242424" transform="translate(0,0)"/>
<path d="" fill="#222222" transform="translate(0,0)"/>
<path d="" fill="#242424" transform="translate(0,0)"/>
<path d="" fill="#242424" transform="translate(0,0)"/>
<path d="" fill="#222222" transform="translate(0,0)"/>
<path d="" fill="#232323" transform="translate(0,0)"/>
<path d="" fill="#222222" transform="translate(0,0)"/>
<path d="" fill="#232323" transform="translate(0,0)"/>
<path d="" fill="#232323" transform="translate(0,0)"/>
<path d="" fill="#232323" transform="translate(0,0)"/>
<path d="" fill="#242424" transform="translate(0,0)"/>
<path d="" fill="#232323" transform="translate(0,0)"/>
<path d="" fill="#232323" transform="translate(0,0)"/>
<path d="" fill="#1F1F1F" transform="translate(0,0)"/>
<path d="" fill="#242424" transform="translate(0,0)"/>
<path d="" fill="#222222" transform="translate(0,0)"/>
<path d="" fill="#232323" transform="translate(0,0)"/>
<path d="" fill="#222222" transform="translate(0,0)"/>
<path d="" fill="#232323" transform="translate(0,0)"/>
<path d="" fill="#222222" transform="translate(0,0)"/>
<path d="" fill="#232323" transform="translate(0,0)"/>
<path d="" fill="#222222" transform="translate(0,0)"/>
<path d="" fill="#222222" transform="translate(0,0)"/>
<path d="" fill="#232323" transform="translate(0,0)"/>
<path d="" fill="#222222" transform="translate(0,0)"/>
<path d="" fill="#222222" transform="translate(0,0)"/>
<path d="" fill="#242424" transform="translate(0,0)"/>
<path d="" fill="#222222" transform="translate(0,0)"/>
<path d="" fill="#212121" transform="translate(0,0)"/>
<path d="" fill="#232323" transform="translate(0,0)"/>
<path d="" fill="#222222" transform="translate(0,0)"/>
<path d="" fill="#232323" transform="translate(0,0)"/>
<path d="" fill="#222222" transform="translate(0,0)"/>
<path d="" fill="#232323" transform="translate(0,0)"/>
<path d="" fill="#232323" transform="translate(0,0)"/>
<path d="" fill="#232323" transform="translate(0,0)"/>
<path d="" fill="#222222" transform="translate(0,0)"/>
<path d="" fill="#232323" transform="translate(0,0)"/>
<path d="" fill="#232323" transform="translate(0,0)"/>
<path d="" fill="#222222" transform="translate(0,0)"/>
<path d="" fill="#232323" transform="translate(0,0)"/>
<path d="" fill="#232323" transform="translate(0,0)"/>
<path d="" fill="#222222" transform="translate(0,0)"/>
<path d="" fill="#222222" transform="translate(0,0)"/>
<path d="" fill="#232323" transform="translate(0,0)"/>
<path d="" fill="#242424" transform="translate(0,0)"/>
<path d="" fill="#222222" transform="translate(0,0)"/>
<path d="" fill="#232323" transform="translate(0,0)"/>
<path d="" fill="#232323" transform="translate(0,0)"/>
<path d="" fill="#222222" transform="translate(0,0)"/>
<path d="" fill="#232323" transform="translate(0,0)"/>
<path d="" fill="#222222" transform="translate(0,0)"/>
<path d="" fill="#232323" transform="translate(0,0)"/>
<path d="" fill="#232323" transform="translate(0,0)"/>
<path d="" fill="#232323" transform="translate(0,0)"/>
<path d="" fill="#232323" transform="translate(0,0)"/>
<path d="" fill="#232323" transform="translate(0,0)"/>
<path d="" fill="#222222" transform="translate(0,0)"/>
<path d="" fill="#232323" transform="translate(0,0)"/>
<path d="" fill="#212121" transform="translate(0,0)"/>
<path d="" fill="#242424" transform="translate(0,0)"/>
<path d="" fill="#232323" transform="translate(0,0)"/>
<path d="" fill="#232323" transform="translate(0,0)"/>
<path d="" fill="#232323" transform="translate(0,0)"/>
<path d="" fill="#222222" transform="translate(0,0)"/>
<path d="" fill="#232323" transform="translate(0,0)"/>
<path d="" fill="#232323" transform="translate(0,0)"/>
<path d="" fill="#232323" transform="translate(0,0)"/>
<path d="" fill="#222222" transform="translate(0,0)"/>
<path d="" fill="#232323" transform="translate(0,0)"/>
<path d="" fill="#232323" transform="translate(0,0)"/>
<path d="" fill="#232323" transform="translate(0,0)"/>
<path d="" fill="#212121" transform="translate(0,0)"/>
<path d="" fill="#222222" transform="translate(0,0)"/>
<path d="" fill="#232323" transform="translate(0,0)"/>
<path d="" fill="#212121" transform="translate(0,0)"/>
<path d="" fill="#232323" transform="translate(0,0)"/>
<path d="" fill="#232323" transform="translate(0,0)"/>
<path d="" fill="#242424" transform="translate(0,0)"/>
<path d="" fill="#232323" transform="translate(0,0)"/>
<path d="" fill="#222222" transform="translate(0,0)"/>
<path d="" fill="#232323" transform="translate(0,0)"/>
<path d="" fill="#242424" transform="translate(0,0)"/>
<path d="" fill="#242424" transform="translate(0,0)"/>
<path d="" fill="#232323" transform="translate(0,0)"/>
<path d="" fill="#232323" transform="translate(0,0)"/>
<path d="" fill="#222222" transform="translate(0,0)"/>
<path d="" fill="#232323" transform="translate(0,0)"/>
<path d="" fill="#232323" transform="translate(0,0)"/>
<path d="" fill="#232323" transform="translate(0,0)"/>
<path d="" fill="#222222" transform="translate(0,0)"/>
<path d="" fill="#232323" transform="translate(0,0)"/>
<path d="" fill="#222222" transform="translate(0,0)"/>
<path d="" fill="#232323" transform="translate(0,0)"/>
<path d="" fill="#242424" transform="translate(0,0)"/>
<path d="" fill="#242424" transform="translate(0,0)"/>
<path d="" fill="#232323" transform="translate(0,0)"/>
<path d="" fill="#232323" transform="translate(0,0)"/>
<path d="" fill="#232323" transform="translate(0,0)"/>
<path d="" fill="#222222" transform="translate(0,0)"/>
<path d="" fill="#222222" transform="translate(0,0)"/>
<path d="" fill="#242424" transform="translate(0,0)"/>
<path d="" fill="#222222" transform="translate(0,0)"/>
<path d="" fill="#222222" transform="translate(0,0)"/>
<path d="" fill="#232323" transform="translate(0,0)"/>
<path d="" fill="#232323" transform="translate(0,0)"/>
<path d="" fill="#232323" transform="translate(0,0)"/>
<path d="" fill="#222222" transform="translate(0,0)"/>
<path d="" fill="#232323" transform="translate(0,0)"/>
<path d="" fill="#232323" transform="translate(0,0)"/>
<path d="" fill="#212121" transform="translate(0,0)"/>
<path d="" fill="#232323" transform="translate(0,0)"/>
<path d="" fill="#212121" transform="translate(0,0)"/>
<path d="" fill="#222222" transform="translate(0,0)"/>
<path d="" fill="#232323" transform="translate(0,0)"/>
<path d="" fill="#222222" transform="translate(0,0)"/>
<path d="" fill="#232323" transform="translate(0,0)"/>
<path d="" fill="#232323" transform="translate(0,0)"/>
<path d="" fill="#222222" transform="translate(0,0)"/>
<path d="" fill="#232323" transform="translate(0,0)"/>
<path d="" fill="#232323" transform="translate(0,0)"/>
<path d="" fill="#232323" transform="translate(0,0)"/>
<path d="" fill="#232323" transform="translate(0,0)"/>
<path d="" fill="#232323" transform="translate(0,0)"/>
<path d="" fill="#232323" transform="translate(0,0)"/>
<path d="" fill="#232323" transform="translate(0,0)"/>
<path d="" fill="#212121" transform="translate(0,0)"/>
<path d="" fill="#242424" transform="translate(0,0)"/>
<path d="" fill="#222222" transform="translate(0,0)"/>
<path d="" fill="#222222" transform="translate(0,0)"/>
<path d="" fill="#212121" transform="translate(0,0)"/>
<path d="" fill="#232323" transform="translate(0,0)"/>
<path d="" fill="#232323" transform="translate(0,0)"/>
<path d="" fill="#232323" transform="translate(0,0)"/>
<path d="" fill="#232323" transform="translate(0,0)"/>
<path d="" fill="#232323" transform="translate(0,0)"/>
<path d="" fill="#222222" transform="translate(0,0)"/>
<path d="" fill="#222222" transform="translate(0,0)"/>
<path d="" fill="#232323" transform="translate(0,0)"/>
<path d="" fill="#222222" transform="translate(0,0)"/>
<path d="" fill="#222222" transform="translate(0,0)"/>
<path d="" fill="#232323" transform="translate(0,0)"/>
<path d="" fill="#222222" transform="translate(0,0)"/>
<path d="" fill="#232323" transform="translate(0,0)"/>
<path d="" fill="#222222" transform="translate(0,0)"/>
<path d="" fill="#232323" transform="translate(0,0)"/>
<path d="" fill="#232323" transform="translate(0,0)"/>
<path d="" fill="#242424" transform="translate(0,0)"/>
<path d="" fill="#222222" transform="translate(0,0)"/>
<path d="" fill="#242424" transform="translate(0,0)"/>
<path d="" fill="#232323" transform="translate(0,0)"/>
<path d="" fill="#222222" transform="translate(0,0)"/>
<path d="" fill="#242424" transform="translate(0,0)"/>
<path d="" fill="#222222" transform="translate(0,0)"/>
<path d="" fill="#232323" transform="translate(0,0)"/>
<path d="" fill="#242424" transform="translate(0,0)"/>
<path d="" fill="#242424" transform="translate(0,0)"/>
<path d="" fill="#222222" transform="translate(0,0)"/>
<path d="" fill="#222222" transform="translate(0,0)"/>
<path d="" fill="#232323" transform="translate(0,0)"/>
<path d="" fill="#232323" transform="translate(0,0)"/>
<path d="" fill="#212121" transform="translate(0,0)"/>
<path d="" fill="#222222" transform="translate(0,0)"/>
<path d="" fill="#222222" transform="translate(0,0)"/>
<path d="" fill="#232323" transform="translate(0,0)"/>
<path d="" fill="#222222" transform="translate(0,0)"/>
</svg>
