<?xml version="1.0" encoding="UTF-8"?>
<svg id="Layer_1" data-name="Layer 1" xmlns="http://www.w3.org/2000/svg" viewBox="0 0 595.28 292">
  <defs>
    <style>
      .cls-1 {
        fill: #f9f2e8;
      }
    </style>
  </defs>
  <path class="cls-1" d="M84.92,290.88c-.35-.21-.51-.52-.75-.63-4.34-1.88-5.92-5.53-6-9.89-.13-7.54-.04-15.08-.04-22.61,0-31.95,0-63.89,0-95.84v-2.25c-2.79-1.09-4.54-3.11-5.89-5.41-1.1-1.86-.21-3.78,1.83-4.59.63-.25,1.31-.36,1.98-.52,1.73-.4,2.31-2.05,1.03-3.31-.68-.67-1.64-1.12-2.56-1.46-3.8-1.4-4.53-4.32-1.81-7.34.91-1.01,1.95-2,2.51-3.19,1.9-4.02-.39-8.84-4.94-10.51-1.37-.5-2.83-.77-4.28-1.02-10.98-1.88-19.44-7.49-24.37-17.53-5.15-10.5-4.68-21.1,1.32-31.21,4.47-7.53,11.13-12.35,19.6-14.56,3.01-.78,4.67-2.52,5.61-5.5,2.52-8.03,8.16-12.66,16.4-14.09,6.85-1.19,12.84.84,17.82,5.52,2.8,2.63,4.53,6.05,5.45,9.81.53,2.16,1.83,3.47,3.99,3.98,7,1.67,13.02,5.05,17.77,10.5,4.19,4.8,6.63,10.39,7.4,16.75.74,6.04-.07,11.83-2.43,17.42-2.56,6.06-6.76,10.68-12.28,14.2-4.76,3.03-10.08,4.33-15.53,5.38-1.64.31-3.36,1.1-4.64,2.16-3.45,2.86-3.28,7.34.13,10.98.61.65,1.25,1.3,1.72,2.04,1.75,2.77.73,5.38-2.39,6.27-.8.23-1.78.38-2.3.92-.61.63-.97,1.63-1.09,2.52-.04.32.93.82,1.5,1.13.4.22.91.25,1.36.39,2.58.82,3.31,2.11,3.02,5.25-.17,1.83-1.72,3.31-3.97,3.31-1.79,0-2.04.79-2.04,2.3.03,22.35.02,44.7.03,67.06,0,2.18.01,2.19,2.21,2.2,10.33,0,20.66,0,31,0,2.18,0,2.15,0,1.94,2.16-.26,2.72-.47,5.44-.68,8.16-.18,2.28-.52,2.62-2.78,2.64-1.48,0-2.95.05-4.43,0-1.1-.04-1.53.35-1.73,1.49-.57,3.28-.64,3.27-4.03,3.27-2.06,0-4.11.03-6.17,0-1-.01-1.44.41-1.42,1.41.03,1.48.06,2.95-.01,4.43-.06,1.29.41,1.8,1.73,1.76,2.69-.06,5.38.02,8.06-.02,1.12-.02,1.58.37,1.62,1.55.14,3.52.19,3.52,3.66,3.52,1.27,0,2.54.07,3.79-.02,1.47-.11,2.09.39,2.04,1.95-.1,2.95-.09,5.91,0,8.85.04,1.48-.54,1.89-1.94,1.88-9.54-.04-19.08-.02-28.62-.02-4.57,0-4.62,0-4.55,4.59.05,3.46.09,6.98-2.22,9.77-1.26,1.52-3.12,2.52-4.73,3.87-1.92.11-3.83.11-5.88.11M111.96,73.1c-6.32-3.06-11.93-.9-17.45,2.65-.97-2.08-1.8-3.94-2.71-5.77-.42-.85-.26-1.44.39-2.1.85-.85,1.68-1.75,2.38-2.73,1.68-2.35,3.03-4.88,2.39-7.91-1.32-6.29-9.42-9.36-14.69-5.61-3.89,2.76-4.83,6.34-2.67,10.6.73,1.45,1.49,3.01,2.63,4.09,1.95,1.84,1.81,3.47.57,5.63-1.86,3.24-1.76,3.4-5.17,1.68-8.71-4.39-17.63-.77-22.34,6.38-2.68,4.07-3.41,8.57-2.66,13.26.75,4.71,2.99,8.67,6.75,11.74,3.66,3,7.91,4.16,12.49,3.93,4.24-.21,7.92-1.86,10.08-5.77,2.76-4.99,9.36-4.42,11.62-.27,2.43,4.46,6.48,5.92,11.18,6.07,5.77.18,10.33-2.21,13.89-6.75,3.64-4.63,5.27-9.79,4.24-15.61-1.13-6.36-5.21-10.49-10.92-13.53Z"/>
  <path class="cls-1" d="M.32,75.62c1.54-1.31,3.12-2.42,4.6-3.65,6.38-5.3,12.73-10.63,19.09-15.96,4.83-4.05,9.63-8.13,14.46-12.17,4.22-3.54,8.48-7.04,12.71-10.58,4.23-3.54,8.42-7.12,12.64-10.67,4.95-4.15,9.92-8.27,14.87-12.41,2.33-1.96,4.66-3.92,6.94-5.94,1.07-.94,1.83-1.11,3.07-.04,4.57,3.94,9.28,7.72,13.92,11.58,4.08,3.39,8.13,6.81,12.21,10.2,4.6,3.83,9.2,7.66,13.8,11.48,4.16,3.46,8.32,6.9,12.47,10.37,4.39,3.67,8.78,7.33,13.16,11.02,4.37,3.69,8.72,7.41,13.09,11.11,2.36,2,4.75,3.97,7.13,5.95.6.5,1.21.99,1.82,1.49-.07.16-.15.32-.22.48-.53.04-1.06.13-1.59.13-4.8.01-9.59,0-14.39,0-2.24,0-2.25.01-2.25,2.32,0,19.19,0,38.37,0,57.56,0,.63.13,1.32-.07,1.88-.16.46-.68.88-1.14,1.13-.33.18-.83.05-1.25.05-14.29,0-28.57,0-42.86,0-2.98,0-4.28-.96-5.25-3.76-.61-1.73-1.31-3.44-1.95-5.16-.14-.38-.21-.78-.38-1.4.83-.05,1.49-.12,2.14-.12,12.39,0,24.78,0,37.16,0,2.3,0,2.51-.2,2.51-2.56,0-18.13,0-36.27,0-54.4,0-2.87-1.12-5.13-3.35-6.97-8.11-6.67-16.15-13.42-24.24-20.11-6.92-5.72-13.88-11.38-20.81-17.09-3.32-2.74-6.64-5.49-9.9-8.3-.83-.72-1.49-.63-2.22-.03-4.98,4.11-9.95,8.23-14.93,12.35-4.45,3.68-8.9,7.36-13.36,11.03-5.14,4.24-10.29,8.48-15.44,12.71-3.69,3.03-7.32,6.14-11.11,9.06-2.4,1.85-3.7,4.03-3.6,7.11.11,3.32,0,6.64.03,9.96.1,15.07.23,30.13.28,45.2,0,1.6.51,2.07,2.09,2.07,12.23-.05,24.46-.03,36.69-.03,2.53,0,2.94.64,1.95,3.06-1.9,4.68-5.84,7.37-10.87,7.37-12.76,0-25.51,0-38.27,0q-2.63,0-2.63-2.57c0-19.13,0-38.27,0-57.4q0-2.65-2.71-2.65c-4.58,0-9.17,0-13.9,0-.15-.85-.15-1.71-.15-2.7Z"/>
  <path class="cls-1" d="M164.16,213.39c-5.48-.03-10.8-.06-16.12-.1-.11,0-.23-.18-.64-.52.7-.16,1.14-.27,1.58-.35,1.48-.29,2.33-1.32,2.17-2.8-.58-5.21-1.21-10.42-1.8-15.63-.26-2.28-.46-4.56-.71-7.11-.49.31-.77.38-.87.56-4.29,7.47-8.6,14.94-12.81,22.46-.65,1.15-.78,2.59-1.18,3.88-.11.37-.33.71-.5,1.06-.35-.26-.82-.44-1.03-.78-2-3.28-3.94-6.58-5.91-9.87-3.2-5.37-6.41-10.74-9.62-16.1-.22-.37-.5-.7-1.11-.95-.26,2.21-.53,4.42-.78,6.63-.51,4.53-1.02,9.07-1.51,13.6-.1.89-.19,1.79-.14,2.68.07,1.31.82,2.11,2.11,2.38.38.08.76.16,1.26.27-1.01.86-12.24.99-13.96.18.45-.18.73-.37,1.03-.4,2.82-.35,4.44-1.79,4.81-4.56.81-6.08,1.51-12.18,2.3-18.27.68-5.25,1.42-10.5,2.12-15.75.27-2.08.48-4.17.72-6.26.05-.41.1-.84.25-1.22.14-.35.42-.65.63-.97.31.23.73.4.93.71,1.75,2.81,3.46,5.64,5.18,8.47,4.83,7.95,9.67,15.89,14.5,23.84.08.13.17.25.44.66,1.14-1.9,2.17-3.57,3.16-5.26,4.56-7.81,9.1-15.62,13.66-23.42.85-1.45,1.71-2.89,2.62-4.31.19-.29.63-.43.95-.64.21.34.57.66.62,1.02.57,4.16,1.1,8.32,1.64,12.48.57,4.37,1.14,8.74,1.71,13.11.59,4.52,1.17,9.05,1.79,13.57.3,2.17.39,4.4,2.42,5.92,2.92,2.18,7.64.54,8.24-3.02.56-3.36.91-6.76,1.35-10.14.68-5.2,1.35-10.4,2.02-15.61.59-4.53,1.18-9.05,1.77-13.58.12-.94.18-1.88.37-2.81.07-.35.36-.87.62-.92.27-.06.76.29.95.58,1.51,2.4,2.97,4.84,4.44,7.26,4.88,8.04,9.75,16.09,14.64,24.12.26.43.62.82,1.11,1.45.72-1.13,1.37-2.05,1.94-3.03,5.69-9.76,11.37-19.53,17.08-29.28.28-.49.87-.8,1.31-1.19.21.49.54.97.61,1.48.75,5.3,1.46,10.6,2.17,15.9.53,3.95,1.05,7.9,1.59,11.85.61,4.52,1.19,9.05,1.88,13.56.42,2.73,1.91,3.97,4.67,4.23.36.03.72.18,1.29.32-1.51.86-19.18.81-20.18.09.05-.09.08-.24.15-.26,3.03-.98,3.29-1.22,2.98-4.28-.7-6.94-1.49-13.87-2.26-20.81-.01-.14-.14-.26-.5-.86-2.8,4.83-5.48,9.4-8.1,13.99-2.61,4.57-5.83,8.86-6.73,14.28-.2.04-.4.07-.6.11-5.59-9.37-11.19-18.74-16.78-28.11-.12,0-.24,0-.36.01-.23,1.67-.49,3.34-.68,5.02-.63,5.68-1.22,11.37-1.86,17.05-.22,1.94.45,3.01,2.34,3.43.28.06.54.19.79.54-5.33.61-10.67.31-16.16.41Z"/>
  <path class="cls-1" d="M483.62,204.53c0-10.75,0-21.35,0-31.94,0-3.73-.74-4.64-4.41-5.47-.13-.03-.23-.18-.66-.53.72-.15,1.16-.31,1.6-.31,8.33-.01,16.66-.21,24.98.07,4.65.16,9.15,1.59,12,5.67,4,5.74,2.45,16.99-7.31,19.51-.66.17-1.32.33-2.18.54.94.8,1.86,1.4,2.54,2.2,4.26,4.99,8.47,10.02,12.69,15.04,4.67,5.56,9.6,10.84,16.8,13.07,2.48.77,5.13.97,7.7,1.48.45.09.86.39,1.29.59-.35.33-.65.8-1.06.96-9.75,3.94-18.83,2.58-27.21-3.61-3.11-2.29-5.66-5.16-7.83-8.37-4.41-6.53-8.82-13.07-13.28-19.57-.91-1.32-2.06-2.47-3.33-3.98,1.13-.19,2.1-.44,3.09-.51,5.4-.38,8.84-4.07,8.97-9.47.09-3.84-.91-7.08-4.32-9.21-2.78-1.73-5.88-1.31-8.91-1.12-.27.02-.66.98-.67,1.51-.07,3.06-.04,6.11-.04,9.17,0,8.96,0,17.92,0,26.88,0,3.57,1.05,4.78,4.55,5.36.18.03.35.16.55.26-.9.8-18.73.95-20.67.05.72-.18,1.1-.3,1.49-.37,2.18-.36,3.57-1.91,3.62-4.11.03-1.21,0-2.42.01-3.79Z"/>
  <path class="cls-1" d="M462.01,187.56c3.09,6.81,6.14,13.5,9.17,20.21,1.18,2.63,2.99,4.42,5.99,4.73.17.02.33.18.53.3-1.04.77-19.93.85-21.57.01.57-.18.91-.3,1.26-.39,1.76-.42,2.62-1.71,2.01-3.43-.91-2.58-1.93-5.11-3.04-7.61-.21-.46-1.04-.91-1.59-.92-4.32-.07-8.64-.09-12.96.01-.6.01-1.45.63-1.72,1.2-1.02,2.13-1.87,4.34-2.75,6.54-1.02,2.56-.43,3.65,2.28,4.29.14.03.25.16.43.65-.63.08-1.26.22-1.9.22-9.91.01-19.82.01-29.73,0-.63,0-1.27.02-1.9-.04-.26-.02-.5-.22-.75-.68.42-.08.83-.17,1.25-.25,2.08-.37,3.52-1.92,3.52-4.03.02-12.39.02-24.77,0-37.16,0-2.11-1.45-3.66-3.52-4.01-.42-.07-.83-.16-1.25-.25.02-.16.03-.32.05-.47h20.11c.02.11.04.22.06.34-.3.12-.59.3-.9.35-2.89.45-4.09,1.8-4.09,4.79-.02,7.27,0,14.55,0,21.82,0,4.48,0,8.96,0,13.44,0,2.72.98,4.38,2.94,5.05,2.15.73,5.62-.1,6.74-1.97,1.45-2.42,2.66-4.99,3.81-7.57,2.96-6.62,5.85-13.27,8.73-19.92,2.44-5.64,4.83-11.3,7.25-16.95.16-.37.37-.72,1.07-1.22,3.47,7.6,6.94,15.19,10.47,22.89M447.8,183.15c-1.93,4.59-3.87,9.18-5.87,13.92h12.76c-2.05-5.19-4.01-10.13-6.1-15.41-.39.68-.57.98-.8,1.49Z"/>
  <path class="cls-1" d="M335.28,199.18c.73,6.82-4.89,11.46-9.64,13.25-3.53,1.32-7.19,1.83-10.95,1.96-5.2.19-10.29-.17-15.08-2.32-6.06-2.72-9.46-7.47-10.17-14.08-.17-1.56-.27-3.14-.29-4.71,0-.61.3-1.23.76-1.89.92,6.24,2.47,12.06,8.22,16.16.07-.86.15-1.44.15-2.02,0-11.07,0-22.13,0-33.2,0-3.44-.91-4.52-4.36-5.19-.14-.03-.25-.16-.72-.46.64-.19,1.01-.4,1.38-.4,6.48-.02,12.97-.17,19.44.05,3.59.13,7.01,1.36,10,3.49,4.62,3.28,5.3,10.86,1.39,14.99-.54.57-1.13,1.09-1.86,1.78.48.2.86.43,1.28.51,5.29,1.01,8.79,4,10.17,9.27.22.85.19,1.76.28,2.8M308.71,189.19c0,5.95,0,11.9,0,17.85q0,4.02,3.96,3.81c7.99-.44,13.21-8.94,10.01-16.29-1.99-4.56-6-5.82-10.41-6.48-.49-.07-.98-.21-1.25-.27,1.42-1.16,3.01-2.05,4.02-3.39,1.78-2.35,2.01-5.15,1.62-8.09-.5-3.74-2.18-5.82-5.82-6.67-1.88-.44-2.12-.27-2.13,1.67-.01,5.85,0,11.69,0,17.85Z"/>
  <path class="cls-1" d="M278.88,208.88c-5.34,3.89-11.24,5.45-17.7,5.5-5.82.05-11.44-.57-16.61-3.49-6.17-3.49-10.02-8.65-11.16-15.72-.86-5.32-.67-10.54,1.41-15.61,2.51-6.11,7.01-10.22,13.14-12.33,8.81-3.03,17.77-3.06,26.32.76,7.71,3.45,11.99,9.7,12.97,18.22.4,3.51.24,6.93-.52,10.32-1.13,4.97-3.71,9.1-7.84,12.35M274.3,179.02c-.45-1-.84-2.05-1.37-3.01-3.48-6.25-8.98-8.52-15.94-7.27-5.72,1.02-8.95,5.04-10.89,10.14-1.73,4.56-2.18,9.33-1.65,14.24.46,4.3,1.43,8.34,3.89,11.98,5.82,8.58,19.43,8.45,24.6-1.53,4.06-7.84,4.07-16.03,1.36-24.54Z"/>
  <path class="cls-1" d="M563.53,176.73c1.7,2.7,4.37,4.06,6.81,5.67,3.9,2.57,7.93,4.97,11.73,7.69,3.82,2.72,5.03,6.69,4.52,11.26-.28,2.49-.96,4.84-2.46,6.88-2.41,3.29-5.85,5-9.7,5.67-5.39.94-10.79.82-16.01-1.14-.15-.06-.3-.1-.45-.16-3.64-1.51-4.68-3.39-3.92-7.29.34-1.74.75-3.47,1.23-5.17.17-.58.67-1.06,1.02-1.58.15.04.3.08.45.12.08.48.24.97.22,1.44-.22,5.82,5.3,11.3,11.52,11.1,3.07-.1,5.95-.33,8.21-2.8,2.33-2.55,2.56-6.39-.05-8.61-2.54-2.17-5.44-3.92-8.22-5.8-3.05-2.06-6.25-3.91-9.18-6.13-2.67-2.02-4.05-4.9-4.18-8.32-.12-2.99.04-5.92,1.77-8.5,2.5-3.72,6.14-5.64,10.53-5.67,4.77-.04,9.55.35,14.32.63.4.02,1.12.63,1.1.91-.22,2.82-.56,5.63-.88,8.44-.02.17-.19.33-.48.8-.27-.78-.53-1.26-.59-1.77-.41-3.22-4.38-5.86-7.5-5.9-2.36-.03-4.73-.17-6.91,1.11-2.14,1.26-4.35,4.47-2.93,7.14Z"/>
  <path class="cls-1" d="M393.98,209.18c1.76-1.41,3.65-2.56,4.99-4.18,1.3-1.56,2.03-3.6,3.4-5.39.05.34.21.71.14,1.03-.86,3.84-1.79,7.67-2.63,11.52-.2.91-.59,1.23-1.48,1.23-10.91-.01-21.82,0-32.73-.02-.33,0-.66-.16-1.46-.36.71-.31.99-.54,1.27-.54,2.68-.02,4.31-2.7,4.3-4.94-.05-6.59-.02-13.18-.01-19.77,0-5.06,0-10.12,0-15.18,0-3.36-1.27-4.85-4.57-5.43-.18-.03-.34-.17-.54-.28.98-.79,18.92-.89,20.59-.02-.59.16-.93.31-1.28.35-2.3.26-3.74,1.76-3.74,4.06-.01,12.33.01,24.67-.03,37,0,1.52.49,2.06,2,1.98,3.2-.17,6.41-.18,9.61-.35.71-.04,1.4-.43,2.2-.71Z"/>
  <path class="cls-1" d="M343.82,182.07c0-3.27,0-6.38,0-9.48-.01-3.37-1.29-4.87-4.57-5.43-.18-.03-.34-.17-.54-.27.95-.79,18.83-.92,20.6-.05-.6.17-.93.32-1.28.36-2.31.26-3.76,1.76-3.76,4.04-.01,12.38-.01,24.76,0,37.15,0,2.15,1.33,3.67,3.44,4.03.43.07.87.14,1.45.24-.98.89-18.76,1.06-20.54.29.31-.19.54-.45.76-.45,2.78.03,4.46-2.39,4.45-5.43-.03-8.27,0-16.54,0-24.97Z"/>
  <path class="cls-1" d="M532.65,193.78c0-7.16,0-14.17,0-21.17,0-3.71-.77-4.65-4.41-5.48-.13-.03-.23-.18-.35-.28.9-.74,18.4-.88,20.33,0-.72.18-1.1.31-1.49.37-2.18.36-3.62,1.9-3.62,4.1-.02,12.33-.02,24.65,0,36.98,0,2.21,1.42,3.77,3.58,4.14.39.06.77.15,1.25.24-.98.95-18.87,1.02-20.15.12.34-.13.6-.28.87-.33,2.6-.44,3.97-1.97,3.98-4.62.03-4.63,0-9.27.01-14.06Z"/>
</svg>