<?xml version="1.0" encoding="UTF-8"?>
<svg version="1.1" xmlns="http://www.w3.org/2000/svg" width="980" height="980">
<path d="M0 0 C323.4 0 646.8 0 980 0 C980 323.4 980 646.8 980 980 C656.6 980 333.2 980 0 980 C0 656.6 0 333.2 0 0 Z " fill="#F3F3F3" transform="translate(0,0)"/>
<path d="M0 0 C0.95373227 -0.00297112 1.90746455 -0.00594224 2.8900978 -0.0090034 C6.10599577 -0.01771853 9.32185664 -0.01920102 12.5377655 -0.02069092 C14.83533814 -0.0253171 17.13291 -0.03034148 19.43048096 -0.03573608 C25.68669678 -0.04888127 31.94290186 -0.05530915 38.19912934 -0.05974674 C42.10450209 -0.06267402 46.00987188 -0.06677816 49.91524315 -0.07125092 C60.7249036 -0.08336284 71.53456079 -0.09374389 82.34422779 -0.09712601 C83.03632077 -0.09734557 83.72841375 -0.09756514 84.44147925 -0.09779136 C85.13524358 -0.09800964 85.82900791 -0.09822791 86.54379541 -0.09845281 C87.94966304 -0.09889628 89.35553068 -0.09934284 90.76139832 -0.09979248 C91.80744027 -0.10012463 91.80744027 -0.10012463 92.87461438 -0.10046348 C104.17462745 -0.10441157 115.47457603 -0.12186524 126.77456418 -0.145152 C138.3719726 -0.16885904 149.96934546 -0.18106952 161.56677836 -0.18249393 C168.07996535 -0.18354384 174.59306143 -0.18949127 181.10622597 -0.20731354 C187.23176658 -0.22374846 193.3571475 -0.22597199 199.48270226 -0.21717453 C201.73335064 -0.2164017 203.98400745 -0.22077906 206.2346344 -0.23063278 C209.30269251 -0.24327955 212.37017884 -0.23751494 215.43823242 -0.22705078 C216.33278588 -0.23510719 217.22733933 -0.24316359 218.14900047 -0.25146413 C222.88079253 -0.21361466 226.08307553 0.02951796 229.90959167 3.14044189 C231.07469117 5.47064089 231.03291319 6.81044188 231.02984619 9.40512085 C231.03190819 10.74709534 231.03190819 10.74709534 231.03401184 12.11618042 C231.03041656 13.10016815 231.02682129 14.08415588 231.02311707 15.09796143 C231.02326309 16.13213196 231.02340912 17.16630249 231.02355957 18.23181152 C231.02286091 21.66231356 231.01507068 25.09276181 231.00724792 28.52325439 C231.00538358 30.89694184 231.00395975 33.27062966 231.00296021 35.64431763 C230.99913634 41.90133725 230.98930714 48.15833377 230.97825623 54.41534424 C230.96803931 60.79636319 230.96346198 67.17738587 230.9584198 73.55841064 C230.94768478 86.08576427 230.93080128 98.61310185 230.90959167 111.14044189 C231.87671082 110.79787354 232.84382996 110.45530518 233.84025574 110.10235596 C237.4853713 108.8115324 241.13100297 107.52217169 244.77677917 106.23321533 C246.34397399 105.67891651 247.91103518 105.12423971 249.47795105 104.56915283 C257.76705031 101.63298852 266.05773103 98.71648848 274.41346741 95.97386169 C278.65372179 94.55810207 282.84148701 93.00163137 287.03459167 91.45294189 C296.61439777 87.93732431 306.24255247 84.57567517 315.90226746 81.28619385 C321.61091838 79.33069248 327.22715263 77.2640579 332.7865448 74.91485596 C337.32489751 73.25942187 340.63132513 73.66080773 345.06762123 75.32540512 C347.41445533 76.98981771 347.86252297 77.91460114 348.45740581 80.76891375 C348.67192537 84.41355773 348.68057287 88.03305852 348.63111877 91.68103027 C348.63373461 93.10342084 348.63898696 94.5258086 348.64665377 95.94818091 C348.66009431 99.86165393 348.63603897 103.774145 348.6059854 107.68749285 C348.58011612 111.90559421 348.5888399 116.12363853 348.59339905 120.34179688 C348.59654782 127.65158499 348.57769548 134.96105219 348.54397202 142.27075958 C348.49524528 152.83936093 348.479587 163.40780684 348.47204407 173.97650835 C348.45890667 191.12271223 348.41896182 208.268745 348.36222839 225.41485596 C348.3071688 242.07239932 348.26469113 258.72989624 348.23918152 275.38751221 C348.23760518 276.41398779 348.23602884 277.44046338 348.23440473 278.49804428 C348.2265746 283.64748196 348.21899233 288.79691997 348.21153331 293.9463582 C348.14931547 336.67783796 348.04362124 379.40913111 347.90959167 422.14044189 C348.61480957 422.13378006 349.32002747 422.12711823 350.0466156 422.12025452 C356.69702366 422.06010966 363.34735567 422.01445047 369.9979744 421.98500538 C373.41703659 421.96935831 376.8358738 421.94813819 380.25480652 421.91412354 C384.18658239 421.87525205 388.11826757 421.86072468 392.05021667 421.84747314 C393.88945709 421.82424736 393.88945709 421.82424736 395.76585388 421.80055237 C396.90673462 421.80032578 398.04761536 421.80009918 399.22306824 421.79986572 C400.22678467 421.79320389 401.2305011 421.78654205 402.26463318 421.77967834 C405.36956607 422.20318087 406.72582327 422.908363 408.90959167 425.14044189 C409.78529789 430.56982043 409.78529789 430.56982043 408.90959167 433.14044189 C405.59259603 436.66156512 403.39376842 438.4214352 398.51414669 438.76718771 C396.76982176 438.79351029 395.02495189 438.79239716 393.28057671 438.7696476 C391.82843019 438.7805484 391.82843019 438.7805484 390.34694737 438.79166943 C387.08943166 438.80997748 383.83308473 438.79253633 380.57557678 438.77536011 C378.22210687 438.78111895 375.86864145 438.78905846 373.51518548 438.79899633 C367.71705795 438.81772909 361.91927351 438.81312423 356.12114118 438.7987425 C349.1765395 438.78281079 342.23206941 438.79586277 335.28747427 438.80980206 C321.68131358 438.83614552 308.07527018 438.83384318 294.4690983 438.8194075 C282.56349908 438.80683779 270.6579429 438.80354245 258.75233841 438.80952072 C257.96311368 438.80990265 257.17388895 438.81028457 256.36074833 438.81067807 C253.15718119 438.81223472 249.95361408 438.81382671 246.75004699 438.81547689 C216.69038102 438.83077645 186.63078984 438.81689684 156.57113541 438.78999241 C129.85139458 438.76625923 103.13177288 438.76839083 76.41203308 438.79229736 C46.40490615 438.81905531 16.39784529 438.8296961 -13.60929191 438.81423604 C-16.80645679 438.81263241 -20.00362168 438.81106821 -23.20078659 438.80952072 C-23.98803367 438.80912533 -24.77528075 438.80872995 -25.5863838 438.80832258 C-37.48734185 438.80262937 -49.3882522 438.80929734 -61.28920364 438.82191849 C-74.81627437 438.83619247 -88.34320926 438.83268829 -101.870263 438.80551477 C-108.77703327 438.79209889 -115.68358259 438.78664592 -122.5903511 438.80376053 C-128.90536796 438.8185922 -135.21991641 438.81058394 -141.5348904 438.78387277 C-143.82682155 438.77825902 -146.11879177 438.78119235 -148.41069807 438.79325171 C-151.51206348 438.80832622 -154.61179735 438.79299803 -157.71307564 438.7696476 C-158.6153294 438.78135343 -159.51758316 438.79305926 -160.44717795 438.80511981 C-166.47854846 438.71355126 -166.47854846 438.71355126 -169.65207756 435.74100912 C-171.78609483 431.88260917 -171.38451792 429.47855836 -171.09040833 425.14044189 C-168.71540833 424.07794189 -168.71540833 424.07794189 -166.09040833 423.14044189 C-165.43040833 423.47044189 -164.77040833 423.80044189 -164.09040833 424.14044189 C-164.09040833 423.48044189 -164.09040833 422.82044189 -164.09040833 422.14044189 C-145.61040833 422.14044189 -127.13040833 422.14044189 -108.09040833 422.14044189 C-108.10611877 414.7751416 -108.12182922 407.40984131 -108.13801575 399.8213501 C-108.18615364 376.26200925 -108.21953054 352.70267127 -108.24360431 329.14329459 C-108.24735649 325.48454734 -108.25123945 321.82580025 -108.25520325 318.16705322 C-108.25599018 317.43865477 -108.25677711 316.71025632 -108.25758789 315.95978519 C-108.270646 304.16172897 -108.29430207 292.36371655 -108.32186671 280.56568632 C-108.34990965 268.46210209 -108.36658223 256.35854082 -108.37267381 244.25492543 C-108.37679257 236.78480854 -108.3898068 229.31481545 -108.41415773 221.84473666 C-108.43187265 216.11911608 -108.43377675 210.39357503 -108.42973137 204.66793251 C-108.43055846 202.31730384 -108.43654916 199.9666706 -108.44802475 197.61606979 C-108.4629023 194.41217179 -108.45937897 191.20880787 -108.45117188 188.00489807 C-108.4599104 187.07007089 -108.46864892 186.13524372 -108.47765225 185.17208844 C-108.44412556 180.34553132 -108.26586269 177.04504358 -105.09040833 173.14044189 C-103.31306458 172.02325439 -103.31306458 172.02325439 -101.15290833 171.26544189 C-99.82066223 170.78397705 -99.82066223 170.78397705 -98.46150208 170.29278564 C-96.79281067 169.72237549 -96.79281067 169.72237549 -95.09040833 169.14044189 C-93.6224864 168.62225147 -92.15507891 168.10260244 -90.68806458 167.58184814 C-86.36542875 166.05350314 -82.03537133 164.54727974 -77.70320129 163.04620361 C-73.72584597 161.66739701 -69.75155479 160.27989526 -65.77790833 158.89044189 C-64.59503235 158.47749878 -64.59503235 158.47749878 -63.38825989 158.05621338 C-58.01514174 156.17645217 -52.65069177 154.27302528 -47.28962708 152.35919189 C-45.90267323 151.86470037 -44.51571029 151.37023438 -43.1287384 150.87579346 C-40.41012727 149.90655742 -37.69271476 148.93405372 -34.97590637 147.95977783 C-33.69901335 147.50425132 -32.42207824 147.04884276 -31.14509583 146.59356689 C-30.02602844 146.19299072 -28.90696106 145.79241455 -27.75398254 145.37969971 C-24.8005034 144.38064199 -21.84829494 143.45356116 -18.86143494 142.56298828 C-17.96636797 142.29573315 -17.071301 142.02847801 -16.14911079 141.75312424 C-15.46973898 141.55093906 -14.79036716 141.34875389 -14.09040833 141.14044189 C-14.09179101 140.09184588 -14.09179101 140.09184588 -14.09320164 139.02206612 C-14.11526364 122.03053725 -14.13182319 105.03901201 -14.1422205 88.047472 C-14.14738189 79.83057263 -14.15442163 71.6136828 -14.16584778 63.39678955 C-14.17579937 56.23689323 -14.18226289 49.07700383 -14.18449682 41.91710079 C-14.18580311 38.124241 -14.18888387 34.33140098 -14.19613838 30.53854752 C-14.20290609 26.97144214 -14.20502375 23.40436476 -14.20351601 19.83725357 C-14.20392397 17.89817193 -14.20931528 15.95909337 -14.21482849 14.02001953 C-14.21345383 12.87294525 -14.21207916 11.72587097 -14.21066284 10.54403687 C-14.21204553 9.04243609 -14.21204553 9.04243609 -14.21345615 7.51049995 C-14.09040833 5.14044189 -14.09040833 5.14044189 -13.09040833 3.14044189 C-12.43040833 3.14044189 -11.77040833 3.14044189 -11.09040833 3.14044189 C-11.09040833 2.48044189 -11.09040833 1.82044189 -11.09040833 1.14044189 C-7.67376431 -0.56788011 -3.75955127 -0.00361454 0 0 Z " fill="#3E3E3E" transform="translate(371.0904083251953,270.85955810546875)"/>
<path d="M0 0 C69.3 0 138.6 0 210 0 C210 133.65 210 267.3 210 405 C141.03 405 72.06 405 1 405 C0.74904938 340.066528 0.74904938 340.066528 0.64453125 311.9765625 C0.62064133 305.55761705 0.59672224 299.13867172 0.57275391 292.71972656 C0.56975497 291.91625605 0.56675604 291.11278553 0.56366622 290.28496742 C0.52224324 279.19679573 0.47974211 268.10862868 0.43630803 257.02046469 C0.36098952 237.7922991 0.2879867 218.56412601 0.21875 199.3359375 C0.21600838 198.5758861 0.21326676 197.8158347 0.21044207 197.03275144 C0.08042642 160.91280726 -0.01797054 124.79304461 -0.03125 88.67285156 C-0.03151876 87.97662664 -0.03178753 87.28040171 -0.03206444 86.56307906 C-0.04269935 57.70871374 -0.01676361 28.8543599 0 0 Z " fill="#F2F2F2" transform="translate(375,288)"/>
<path d="M0 0 C0 107.91 0 215.82 0 327 C-33 327 -66 327 -100 327 C-100 230.64 -100 134.28 -100 35 C-89.12602385 30.7712315 -78.34248199 26.622118 -67.3125 22.875 C-66.04882089 22.44280458 -64.78523148 22.01034681 -63.52172852 21.57763672 C-53.9911032 18.3210966 -44.45515588 15.07659628 -34.8671875 11.9921875 C-28.73414391 10.00012475 -22.83446154 7.70305921 -16.90625 5.16796875 C-13.31654951 3.72533374 -9.68532549 2.61468606 -5.9609375 1.578125 C-0.60810811 0 -0.60810811 0 0 0 Z " fill="#F1F1F1" transform="translate(702,365)"/>
<path d="M0 0 C0 86.46 0 172.92 0 262 C-25.41 262 -50.82 262 -77 262 C-77 184.12 -77 106.24 -77 26 C-73.04 24.68 -69.08 23.36 -65 22 C-61.91397499 20.92347965 -58.83064939 19.84155325 -55.75 18.75 C-48.03154486 16.02522391 -40.27565652 13.4314299 -32.5 10.875 C-25.32503644 8.51048482 -18.27236307 6.08394991 -11.3671875 3.0078125 C-7.56047217 1.38713171 -4.16486604 0 0 0 Z " fill="#F2F2F2" transform="translate(357,430)"/>
<path d="M0 0 C1.31282959 -0.00241196 2.62565918 -0.00482391 3.97827148 -0.00730896 C6.75243209 -0.01016206 9.52578313 0.00448393 12.29980469 0.03198242 C15.84760171 0.06606651 19.39395193 0.06004356 22.94181824 0.04131985 C26.33635482 0.02818236 29.73047348 0.04647261 33.125 0.0625 C35.03140259 0.0550602 35.03140259 0.0550602 36.97631836 0.04747009 C38.16104736 0.06330643 39.34577637 0.07914276 40.56640625 0.09545898 C41.60611572 0.10165756 42.6458252 0.10785614 43.71704102 0.11424255 C47.31546085 0.76509574 48.98782502 2.07071128 51.5625 4.62890625 C52.6875 8.06640625 52.6875 8.06640625 52.5625 11.62890625 C50.1875 14.50390625 50.1875 14.50390625 47.5625 16.62890625 C47.0675 17.12390625 47.0675 17.12390625 46.5625 17.62890625 C44.70704695 17.73849178 42.84741694 17.77800554 40.98876953 17.79003906 C39.79728302 17.79964661 38.60579651 17.80925415 37.37820435 17.81915283 C36.08035004 17.82340271 34.78249573 17.82765259 33.4453125 17.83203125 C32.10871375 17.8377807 30.77211504 17.84353846 29.43551636 17.8493042 C26.62937026 17.8598231 23.82325289 17.86565977 21.01708984 17.86914062 C17.41994993 17.87462407 13.82318881 17.89864457 10.22616768 17.92711258 C7.46380504 17.94573111 4.70153371 17.95094414 1.93911362 17.9524765 C-0.03240584 17.95698035 -2.00387644 17.97563238 -3.97531128 17.9944458 C-5.77199753 17.98994415 -5.77199753 17.98994415 -7.60498047 17.98535156 C-9.18930374 17.99082001 -9.18930374 17.99082001 -10.80563354 17.99639893 C-13.4375 17.62890625 -13.4375 17.62890625 -15.30203247 16.23162842 C-16.4375 14.62890625 -16.4375 14.62890625 -16.4375 12.62890625 C-17.0975 12.62890625 -17.7575 12.62890625 -18.4375 12.62890625 C-18.82585902 8.6676442 -18.88932373 6.3549108 -16.7578125 2.92993164 C-12.312902 -1.16131774 -5.63633223 -0.0587974 0 0 Z " fill="#434343" transform="translate(509.4375,587.37109375)"/>
<path d="M0 0 C1.16493484 -0.01283524 2.32986969 -0.02567047 3.53010559 -0.03889465 C4.79465073 -0.04628159 6.05919586 -0.05366852 7.36206055 -0.0612793 C9.30437813 -0.07338692 9.30437813 -0.07338692 11.28593445 -0.08573914 C14.03062815 -0.10076626 16.77529597 -0.11060395 19.52001953 -0.11816406 C23.03073698 -0.12922128 26.54081931 -0.16361253 30.05131245 -0.20333576 C33.40486966 -0.23581494 36.75835819 -0.24028199 40.11206055 -0.2487793 C41.99976921 -0.27504143 41.99976921 -0.27504143 43.9256134 -0.30183411 C45.10000473 -0.29890854 46.27439606 -0.29598297 47.484375 -0.29296875 C48.51536819 -0.29883499 49.54636139 -0.30470123 50.6085968 -0.31074524 C54.1845151 0.30606521 55.87025591 1.65904808 58.4362793 4.17700195 C58.92456055 6.53637695 58.92456055 6.53637695 58.7487793 8.92700195 C58.70366211 9.7262207 58.65854492 10.52543945 58.61206055 11.34887695 C58.55405273 11.9521582 58.49604492 12.55543945 58.4362793 13.17700195 C57.4462793 13.50700195 56.4562793 13.83700195 55.4362793 14.17700195 C55.4362793 14.83700195 55.4362793 15.49700195 55.4362793 16.17700195 C52.78025966 17.50501177 50.73923739 17.32610185 47.76489258 17.35400391 C46.57670929 17.36683914 45.388526 17.37967438 44.16433716 17.39289856 C42.87478119 17.40028549 41.58522522 17.40767242 40.2565918 17.4152832 C38.93714569 17.42335495 37.61769958 17.4314267 36.25827026 17.43974304 C33.46230192 17.45476883 30.66635898 17.46460776 27.87036133 17.47216797 C24.29004948 17.48323649 20.71035847 17.51764162 17.13026619 17.55733967 C14.37644294 17.58348708 11.62276811 17.59185801 8.86883163 17.59544945 C6.90783596 17.60268635 4.94694168 17.62913235 2.9861145 17.65583801 C1.79162689 17.65291245 0.59713928 17.64998688 -0.63354492 17.64697266 C-1.68452362 17.6528389 -2.73550232 17.65870514 -3.81832886 17.66474915 C-7.25621228 17.05397368 -8.40091888 15.85595576 -10.5637207 13.17700195 C-11.98413891 10.33616554 -11.87824343 8.32222918 -11.5637207 5.17700195 C-7.9821362 0.7597144 -5.53147718 0.05293863 0 0 Z " fill="#434343" transform="translate(408.563720703125,326.822998046875)"/>
<path d="M0 0 C1.16170715 -0.01283524 2.32341431 -0.02567047 3.52032471 -0.03889465 C5.41243683 -0.04997505 5.41243683 -0.04997505 7.34277344 -0.0612793 C9.28153351 -0.07338692 9.28153351 -0.07338692 11.25946045 -0.08573914 C13.99995798 -0.10076802 16.74042958 -0.11060428 19.48095703 -0.11816406 C22.98260941 -0.12921028 26.48362309 -0.16358784 29.9850502 -0.20333576 C33.33343192 -0.23585527 36.68174601 -0.24028584 40.03027344 -0.2487793 C41.91024017 -0.27504143 41.91024017 -0.27504143 43.82818604 -0.30183411 C54.97675316 -0.27405973 54.97675316 -0.27405973 59.45214844 4.17700195 C60.23281369 8.47066082 59.96679028 10.38788446 57.57714844 14.05200195 C54.30439946 17.32475094 52.41182501 17.31331813 47.88842773 17.36987305 C46.14102547 17.39396744 46.14102547 17.39396744 44.35832214 17.41854858 C39.0283453 17.46290652 33.69851667 17.50450287 28.3684082 17.52709961 C25.55427516 17.54043519 22.74086792 17.56827915 19.92700195 17.60913086 C15.87666575 17.66793213 11.82710795 17.6857595 7.77636719 17.70043945 C6.51789474 17.72310883 5.2594223 17.7457782 3.96281433 17.76913452 C-5.75017486 17.74556284 -5.75017486 17.74556284 -8.84936523 14.83178711 C-10.93777869 11.56753413 -11.18274904 9.98638682 -10.54785156 6.17700195 C-7.8305913 0.6189696 -5.98364279 0.05743446 0 0 Z " fill="#424242" transform="translate(408.5478515625,587.822998046875)"/>
<path d="M0 0 C1.13823212 -0.01583633 2.27646423 -0.03167267 3.44918823 -0.04798889 C5.28055832 -0.04054909 5.28055832 -0.04054909 7.14892578 -0.03295898 C9.04446701 -0.04225685 9.04446701 -0.04225685 10.978302 -0.05174255 C13.65016001 -0.05884357 16.32051145 -0.05761095 18.9921875 -0.04296875 C22.40095009 -0.02580816 25.80802264 -0.04924603 29.2165966 -0.08445835 C32.48572514 -0.11182065 35.75471511 -0.10168935 39.02392578 -0.09545898 C40.24079071 -0.10871719 41.45765564 -0.1219754 42.71139526 -0.13563538 C49.84920866 -0.05747359 54.01487004 0.4632315 59.21923828 5.53344727 C59.90673828 8.53344727 59.90673828 8.53344727 59.21923828 11.53344727 C57.41930054 14.23335388 56.13546528 16.07533377 53.21923828 17.53344727 C51.36721082 17.64994035 49.51106013 17.70311897 47.65551758 17.72631836 C45.90811531 17.75041275 45.90811531 17.75041275 44.12541199 17.7749939 C38.79543515 17.81935183 33.46560652 17.86094818 28.13549805 17.88354492 C25.321365 17.8968805 22.50795777 17.92472446 19.6940918 17.96557617 C15.6437556 18.02437744 11.59419779 18.04220481 7.54345703 18.05688477 C6.28498459 18.07955414 5.02651215 18.10222351 3.72990417 18.12557983 C-5.9816368 18.10201167 -5.9816368 18.10201167 -9.07202148 15.13183594 C-11.74613397 11.065458 -11.54197428 9.32908642 -10.78076172 4.53344727 C-7.30187521 0.99866827 -4.9095336 0.03048861 0 0 Z " fill="#424242" transform="translate(501.78076171875,326.466552734375)"/>
<path d="M0 0 C1.26465088 -0.00241196 2.52930176 -0.00482391 3.83227539 -0.00730896 C6.50266205 -0.00633065 9.17079774 0.00444815 11.84082031 0.03198242 C15.25062531 0.06606623 18.65892477 0.06004059 22.06880188 0.04131985 C25.33762117 0.02816649 28.60621308 0.04647832 31.875 0.0625 C33.70333374 0.0550602 33.70333374 0.0550602 35.56860352 0.04747009 C46.20788522 0.19508665 46.20788522 0.19508665 50.9375 4.62890625 C51.93582405 7.37698107 51.63268887 9.80759807 50.9375 12.62890625 C49.06734906 15.06010248 47.65611655 16.26959798 44.9375 17.62890625 C43.12140289 17.74526475 41.30111804 17.79855731 39.48144531 17.82177734 C38.33975891 17.83784027 37.19807251 17.8539032 36.02178955 17.87045288 C30.7931902 17.91484513 25.5646786 17.95641522 20.3359375 17.97900391 C17.57713546 17.99232753 14.81907589 18.02014868 12.06054688 18.06103516 C8.0872604 18.11992348 4.11433293 18.1376761 0.140625 18.15234375 C-1.09081238 18.17501312 -2.32224976 18.1976825 -3.59100342 18.22103882 C-13.13883527 18.19746454 -13.13883527 18.19746454 -16.84082031 15.31494141 C-19.0625 12.62890625 -19.0625 12.62890625 -19.8125 9.12890625 C-19.02539757 5.45576157 -18.12508775 3.95614592 -15.17724609 1.66116333 C-10.49338341 -0.62513971 -5.0990361 -0.05546369 0 0 Z " fill="#444444" transform="translate(417.0625,639.37109375)"/>
<path d="M0 0 C1.74256073 -0.02409439 1.74256073 -0.02409439 3.52032471 -0.04867554 C8.84054097 -0.09306235 14.16060866 -0.13463765 19.48095703 -0.15722656 C22.28825577 -0.17055093 25.094825 -0.19837357 27.90185547 -0.23925781 C31.94478592 -0.29814011 35.98693642 -0.31589729 40.03027344 -0.33056641 C41.91024017 -0.36457047 41.91024017 -0.36457047 43.82818604 -0.39926147 C53.54188228 -0.37568656 53.54188228 -0.37568656 57.25195312 2.50292969 C59.45214844 5.19287109 59.45214844 5.19287109 60.07714844 8.75537109 C59.36760137 12.65787995 58.59597505 13.85745704 55.45214844 16.19287109 C52.33150293 17.23308626 50.12534365 17.33190271 46.85083008 17.35400391 C45.70276382 17.36361145 44.55469757 17.37321899 43.37184143 17.38311768 C41.51087074 17.38949249 41.51087074 17.38949249 39.61230469 17.39599609 C37.70184608 17.4045462 37.70184608 17.4045462 35.75279236 17.41326904 C33.05691961 17.42272176 30.36115827 17.4296175 27.6652832 17.43310547 C24.21402311 17.43859382 20.76315681 17.46263394 17.3120203 17.49107742 C14.01631159 17.5141966 10.72058316 17.51615256 7.42480469 17.52099609 C5.56687035 17.5395163 5.56687035 17.5395163 3.67140198 17.55841064 C1.94457436 17.553909 1.94457436 17.553909 0.18286133 17.54931641 C-1.33578773 17.55478485 -1.33578773 17.55478485 -2.88511658 17.56036377 C-6.00030083 17.13042711 -7.3460782 16.41987498 -9.54785156 14.19287109 C-10.63530957 9.69804465 -11.12221975 7.4783618 -9.23535156 3.25537109 C-6.42073303 -0.18471822 -4.27826734 0.05364743 0 0 Z " fill="#424242" transform="translate(502.5478515625,639.80712890625)"/>
<path d="M0 0 C1.31045792 -0.00241196 2.62091583 -0.00482391 3.97108459 -0.00730896 C6.74104945 -0.01016237 9.51020368 0.004485 12.2800293 0.03198242 C15.81876147 0.06603313 19.35604183 0.06005495 22.8948431 0.04131985 C26.28420438 0.02816627 29.67314878 0.04647978 33.0625 0.0625 C34.96116066 0.0550602 34.96116066 0.0550602 36.8981781 0.04747009 C48.17086881 0.19816234 48.17086881 0.19816234 52.59765625 4.62890625 C53.21940919 9.05889594 53.09498114 10.88291892 50.59765625 14.62890625 C49.93765625 14.62890625 49.27765625 14.62890625 48.59765625 14.62890625 C48.59765625 15.28890625 48.59765625 15.94890625 48.59765625 16.62890625 C40.58300279 16.72161832 32.56857366 16.79267663 24.55351639 16.83615494 C20.83170877 16.85702329 17.11026823 16.88532606 13.38867188 16.93066406 C9.79656115 16.97415038 6.2048033 16.99804902 2.61244965 17.00841522 C1.24248448 17.01580175 -0.12746152 17.03022626 -1.49727631 17.05182648 C-3.41693764 17.08089105 -5.33695465 17.08254041 -7.25683594 17.08300781 C-8.34937683 17.09189026 -9.44191772 17.10077271 -10.56756592 17.10992432 C-14.10345049 16.50993925 -15.23941415 15.44001633 -17.40234375 12.62890625 C-18.46484375 9.19140625 -18.46484375 9.19140625 -18.40234375 5.62890625 C-14.11491849 -1.27557595 -7.4279529 -0.07767906 0 0 Z " fill="#3E3E3E" transform="translate(415.40234375,483.37109375)"/>
<path d="M0 0 C1.31282959 -0.00241196 2.62565918 -0.00482391 3.97827148 -0.00730896 C6.75243209 -0.01016206 9.52578313 0.00448393 12.29980469 0.03198242 C15.84760171 0.06606651 19.39395193 0.06004356 22.94181824 0.04131985 C26.33635482 0.02818236 29.73047348 0.04647261 33.125 0.0625 C35.03140259 0.0550602 35.03140259 0.0550602 36.97631836 0.04747009 C38.16104736 0.06330643 39.34577637 0.07914276 40.56640625 0.09545898 C41.60611572 0.10165756 42.6458252 0.10785614 43.71704102 0.11424255 C47.28183466 0.75901371 48.98214355 2.13544329 51.5625 4.62890625 C52.19140625 6.62890625 52.19140625 6.62890625 52.125 8.62890625 C52.12628906 9.28890625 52.12757813 9.94890625 52.12890625 10.62890625 C51.30241412 13.54727846 49.90231309 14.72555455 47.5625 16.62890625 C44.75463867 17.13684082 44.75463867 17.13684082 41.48046875 17.14648438 C40.25239502 17.15909302 39.02432129 17.17170166 37.7590332 17.18469238 C36.42268295 17.17753252 35.08633795 17.16932852 33.75 17.16015625 C32.37524135 17.16285202 31.00048456 17.16673514 29.62573242 17.17175293 C26.74737356 17.17764418 23.86951191 17.16909801 20.99121094 17.15039062 C17.30545984 17.12760014 13.62087378 17.14072538 9.93516541 17.16468048 C7.09720107 17.17914924 4.25951202 17.17452779 1.42153931 17.16416931 C0.06279359 17.16150495 -1.29597728 17.16476166 -2.6546936 17.17408752 C-4.55494699 17.18426866 -6.45528824 17.16599354 -8.35546875 17.14648438 C-9.43594482 17.143302 -10.5164209 17.14011963 -11.62963867 17.13684082 C-15.12892252 16.50382977 -16.30981632 15.43469298 -18.4375 12.62890625 C-19.10965324 8.52130313 -18.97599388 6.48123722 -16.7421875 2.94555664 C-12.31537081 -1.17104308 -5.63540543 -0.05878773 0 0 Z " fill="#3D3D3D" transform="translate(509.4375,535.37109375)"/>
<path d="M0 0 C1.20482529 -0.01260864 2.40965057 -0.02521729 3.65098572 -0.03820801 C4.94895584 -0.03011108 6.24692596 -0.02201416 7.58422852 -0.01367188 C8.93417134 -0.01636801 10.28411227 -0.02025144 11.63404846 -0.02526855 C14.46113605 -0.03116011 17.28771745 -0.02261406 20.11474609 -0.00390625 C23.73090477 0.01886246 27.34587452 0.00577313 30.9619894 -0.01819611 C33.74938335 -0.03268277 36.53649764 -0.02803486 39.32390022 -0.01768494 C41.30305379 -0.01373411 43.2822184 -0.0258427 45.26133728 -0.03820801 C47.07330345 -0.01929504 47.07330345 -0.01929504 48.921875 0 C50.51261086 0.00477356 50.51261086 0.00477356 52.13548279 0.00964355 C55.73508236 0.64226117 57.42573283 1.99876299 60.02563477 4.51757812 C60.68969727 6.51757812 60.68969727 6.51757812 60.65063477 8.51757812 C60.6699707 9.50757813 60.6699707 9.50757813 60.68969727 10.51757812 C59.65586049 13.63125123 57.70420686 14.71436016 55.02563477 16.51757812 C52.18017578 17.0255127 52.18017578 17.0255127 49.02954102 17.03515625 C47.84481201 17.04776489 46.66008301 17.06037354 45.43945312 17.07336426 C44.16851807 17.06526733 42.89758301 17.05717041 41.58813477 17.04882812 C40.27530518 17.05265503 38.96247559 17.05648193 37.60986328 17.0604248 C34.83582662 17.06630979 32.06230651 17.05779032 29.28833008 17.0390625 C25.74057396 17.01627221 22.19402829 17.02940086 18.64631653 17.05335236 C15.25182672 17.07131948 11.85765892 17.05872318 8.46313477 17.04882812 C6.55673218 17.06097351 6.55673218 17.06097351 4.61181641 17.07336426 C2.8347229 17.05445129 2.8347229 17.05445129 1.02172852 17.03515625 C-0.01798096 17.03197388 -1.05769043 17.0287915 -2.12890625 17.0255127 C-5.69757016 16.38848093 -7.39313381 15.01306935 -9.97436523 12.51757812 C-10.60327148 10.51757812 -10.60327148 10.51757812 -10.53686523 8.51757812 C-10.5381543 7.85757812 -10.53944336 7.19757813 -10.54077148 6.51757812 C-8.99892727 1.07327304 -5.16633312 0.01551503 0 0 Z " fill="#3E3E3E" transform="translate(500.974365234375,379.482421875)"/>
<path d="M0 0 C1.16470825 -0.00938095 2.3294165 -0.0187619 3.52941895 -0.02842712 C4.77848022 -0.01719315 6.0275415 -0.00595917 7.31445312 0.00561523 C9.25040344 0.00343239 9.25040344 0.00343239 11.22546387 0.00120544 C13.95243822 -0.00017618 16.67888509 0.01233845 19.40576172 0.03515625 C22.89283573 0.06354119 26.37903396 0.06080089 29.86617279 0.04806614 C33.20319052 0.03941989 36.53995014 0.05456214 39.87695312 0.06811523 C41.75054504 0.06371178 41.75054504 0.06371178 43.6619873 0.05921936 C44.82669556 0.07190353 45.99140381 0.08458771 47.19140625 0.09765625 C48.21335083 0.10305923 49.23529541 0.10846222 50.28820801 0.11402893 C53.55091409 0.56456794 55.44865196 1.57116547 58.09570312 3.50170898 C59.52232531 6.35495336 59.4060418 8.33625447 59.09570312 11.50170898 C57.45629883 14.16148376 57.45629883 14.16148376 55.09570312 16.50170898 C52.2878418 17.12989807 52.2878418 17.12989807 49.01367188 17.1328125 C47.78559814 17.14534561 46.55752441 17.15787872 45.29223633 17.17079163 C43.95588114 17.15852323 42.61953609 17.14510319 41.28320312 17.13061523 C39.90844536 17.13144421 38.53368769 17.13390467 37.15893555 17.13792419 C34.28045751 17.14078032 31.4027584 17.12610128 28.52441406 17.09863281 C24.83862362 17.06454846 21.15422565 17.07056892 17.46836853 17.08929539 C14.63037554 17.09987484 11.79270541 17.09091937 8.95474243 17.07591057 C7.59600789 17.0707351 6.23723954 17.07120289 4.87850952 17.07745552 C2.97820668 17.08291795 1.07788709 17.05965922 -0.82226562 17.03515625 C-1.9027417 17.02895767 -2.98321777 17.02275909 -4.09643555 17.01637268 C-7.56347862 16.38088503 -8.74476868 15.23056191 -10.90429688 12.50170898 C-11.47070312 10.50170898 -11.47070312 10.50170898 -11.46679688 8.50170898 C-11.48871094 7.84170898 -11.510625 7.18170898 -11.53320312 6.50170898 C-9.85664014 1.17003043 -5.02059699 0.00081635 0 0 Z " fill="#3E3E3E" transform="translate(408.904296875,535.498291015625)"/>
<path d="M0 0 C1.184729 -0.01260864 2.36945801 -0.02521729 3.59008789 -0.03820801 C4.86102295 -0.03011108 6.13195801 -0.02201416 7.44140625 -0.01367188 C8.75423584 -0.01749878 10.06706543 -0.02132568 11.41967773 -0.02526855 C14.1937144 -0.03115354 16.96723451 -0.02263407 19.74121094 -0.00390625 C23.28896706 0.01888404 26.83551273 0.00575539 30.38322449 -0.01819611 C33.77771429 -0.03616323 37.1718821 -0.02356693 40.56640625 -0.01367188 C42.47280884 -0.02581726 42.47280884 -0.02581726 44.41772461 -0.03820801 C46.19481812 -0.01929504 46.19481812 -0.01929504 48.0078125 0 C49.56737671 0.00477356 49.56737671 0.00477356 51.15844727 0.00964355 C54.72711487 0.64667598 56.42147422 2.023458 59.00390625 4.51757812 C59.66796875 6.51757812 59.66796875 6.51757812 59.62890625 8.51757812 C59.64824219 9.50757813 59.64824219 9.50757813 59.66796875 10.51757812 C58.63356638 13.63295468 56.68545718 14.71549393 54.00390625 16.51757812 C51.14498901 17.01205444 51.14498901 17.01205444 47.97607422 17.00341797 C46.18929764 17.01264786 46.18929764 17.01264786 44.36642456 17.02206421 C43.08921539 17.00769318 41.81200623 16.99332214 40.49609375 16.97851562 C38.51973434 16.97714096 38.51973434 16.97714096 36.50344849 16.97573853 C33.72099571 16.97261766 30.93906082 16.95610522 28.15673828 16.92919922 C24.59112629 16.89515364 21.02608076 16.8875729 17.46032524 16.88908958 C14.05550555 16.88841515 10.65087161 16.87074267 7.24609375 16.85351562 C5.32420731 16.85017715 5.32420731 16.85017715 3.36349487 16.84677124 C2.17861481 16.83401154 0.99373474 16.82125183 -0.22705078 16.80810547 C-1.27120148 16.80048187 -2.31535217 16.79285828 -3.3911438 16.78500366 C-5.99609375 16.51757812 -5.99609375 16.51757812 -8.99609375 14.51757812 C-8.99609375 13.85757812 -8.99609375 13.19757813 -8.99609375 12.51757812 C-9.65609375 12.51757812 -10.31609375 12.51757812 -10.99609375 12.51757812 C-11.484375 6.65820312 -11.484375 6.65820312 -10.99609375 4.51757812 C-7.3680941 0.98099749 -5.03030865 0.01539692 0 0 Z " fill="#3D3D3D" transform="translate(501.99609375,483.482421875)"/>
<path d="M0 0 C1.22807373 -0.01260864 2.45614746 -0.02521729 3.72143555 -0.03820801 C5.0577858 -0.03104814 6.3941308 -0.02284414 7.73046875 -0.01367188 C9.1052274 -0.01636764 10.47998419 -0.02025077 11.85473633 -0.02526855 C14.73309519 -0.0311598 17.61095684 -0.02261364 20.48925781 -0.00390625 C24.17500891 0.01888424 27.85959497 0.00575899 31.54530334 -0.01819611 C34.38326768 -0.03266486 37.22095673 -0.02804341 40.05892944 -0.01768494 C41.41767516 -0.01502057 42.77644603 -0.01827728 44.13516235 -0.02760315 C46.03541574 -0.03778428 47.93575699 -0.01950917 49.8359375 0 C51.45665161 0.00477356 51.45665161 0.00477356 53.11010742 0.00964355 C56.61043227 0.64284291 57.79473853 1.70601695 59.91796875 4.51757812 C60.41796875 8.01757812 60.41796875 8.01757812 59.91796875 11.51757812 C58.0508837 13.88255252 56.59735444 15.17788528 53.91796875 16.51757812 C52.06594128 16.63407121 50.2097906 16.68724983 48.35424805 16.71044922 C46.60684578 16.73454361 46.60684578 16.73454361 44.82414246 16.75912476 C39.49416561 16.80348269 34.16433698 16.84507904 28.83422852 16.86767578 C26.02009547 16.88101136 23.20668823 16.90885532 20.39282227 16.94970703 C16.34248607 17.0085083 12.29292826 17.02633567 8.2421875 17.04101562 C6.98371506 17.063685 5.72524261 17.08635437 4.42863464 17.10971069 C-5.28506655 17.08613729 -5.28506655 17.08613729 -8.37963867 14.20751953 C-10.61960071 10.6681675 -10.75521965 8.63150724 -10.08203125 4.51757812 C-7.06109833 0.53385931 -4.90274472 0.01444027 0 0 Z " fill="#3D3D3D" transform="translate(501.08203125,431.482421875)"/>
<path d="M0 0 C1.31282959 -0.00004028 2.62565918 -0.00008057 3.97827148 -0.00012207 C6.75244709 0.0015283 9.52581179 0.02017131 12.29980469 0.05175781 C15.84743625 0.09143594 19.39400688 0.09580162 22.94181824 0.08829498 C26.33634034 0.08447925 29.73053029 0.10531437 33.125 0.125 C35.03140259 0.12530212 35.03140259 0.12530212 36.97631836 0.12561035 C38.16104736 0.14152222 39.34577637 0.15743408 40.56640625 0.17382812 C42.12597046 0.18645691 42.12597046 0.18645691 43.71704102 0.19934082 C47.00033016 0.65443766 48.91225599 1.628986 51.5625 3.59375 C52.2265625 5.71484375 52.2265625 5.71484375 52.1875 8.03125 C52.20683594 9.17400391 52.20683594 9.17400391 52.2265625 10.33984375 C51.24420077 13.67409505 49.41434215 14.69052594 46.5625 16.59375 C43.71031189 17.10168457 43.71031189 17.10168457 40.55053711 17.11132812 C39.36258041 17.12393677 38.17462372 17.13654541 36.95066833 17.14953613 C35.67659622 17.14143921 34.40252411 17.13334229 33.08984375 17.125 C31.77464249 17.1288269 30.45944122 17.13265381 29.10438538 17.13659668 C26.3261528 17.14248101 23.54843609 17.13396292 20.77026367 17.11523438 C17.21344262 17.09242184 13.65782743 17.10558721 10.10105038 17.12952423 C6.70138526 17.14746947 3.3020431 17.13489947 -0.09765625 17.125 C-1.37375259 17.13309692 -2.64984894 17.14119385 -3.96461487 17.14953613 C-5.1494194 17.13692749 -6.33422394 17.12431885 -7.55493164 17.11132812 C-8.59686172 17.10814575 -9.63879181 17.10496338 -10.71229553 17.10168457 C-14.15368401 16.46026474 -15.31025907 15.32676228 -17.4375 12.59375 C-18.5 9.15625 -18.5 9.15625 -18.4375 5.59375 C-14.14824828 -1.32845788 -7.43479364 -0.09591002 0 0 Z " fill="#3D3D3D" transform="translate(415.4375,431.40625)"/>
<path d="M0 0 C1.80723793 -0.01407143 1.80723793 -0.01407143 3.65098572 -0.02842712 C5.5979409 -0.01157616 5.5979409 -0.01157616 7.58422852 0.00561523 C8.93416929 0.00546018 10.28411051 0.00397016 11.63404846 0.00120544 C14.46114827 -0.00017783 17.28774032 0.01236471 20.11474609 0.03515625 C23.73075481 0.06351431 27.34591842 0.06081044 30.9619894 0.04806614 C33.74936585 0.04109541 36.53654853 0.04891441 39.32390022 0.06132317 C41.30303474 0.06800984 43.28219655 0.0637026 45.26133728 0.05921936 C46.46931473 0.07190353 47.67729218 0.08458771 48.921875 0.09765625 C50.51261086 0.10576073 50.51261086 0.10576073 52.13548279 0.11402893 C55.44990273 0.55861956 57.3585157 1.51028551 60.02563477 3.50170898 C60.61938477 5.65795898 60.61938477 5.65795898 60.52563477 8.00170898 C60.51532227 8.77514648 60.50500977 9.54858398 60.49438477 10.34545898 C59.92281432 12.97468302 59.13538609 13.8696372 57.02563477 15.50170898 C53.8845543 16.54873581 51.63079527 16.64716941 48.33251953 16.67871094 C47.16443253 16.69154617 45.99634552 16.70438141 44.79286194 16.71760559 C43.53034103 16.72499252 42.26782013 16.73237946 40.96704102 16.73999023 C39.6712059 16.74806198 38.37537079 16.75613373 37.04026794 16.76445007 C34.29735445 16.77945938 31.5544667 16.78930692 28.81152344 16.796875 C25.29961679 16.80795389 21.78834125 16.84237781 18.27665806 16.8820467 C14.92347732 16.91447876 11.57036651 16.91898762 8.21704102 16.92749023 C6.95654434 16.94499832 5.69604767 16.96250641 4.39735413 16.98054504 C3.22611496 16.97761948 2.05487579 16.97469391 0.84814453 16.97167969 C-0.69715187 16.98047905 -0.69715187 16.98047905 -2.27366638 16.98945618 C-5.6780693 16.37461978 -6.82646616 15.15166371 -8.97436523 12.50170898 C-10.39478344 9.66087257 -10.28888796 7.64693621 -9.97436523 4.50170898 C-6.97555868 0.55957136 -4.86010426 0.0007621 0 0 Z " fill="#3D3D3D" transform="translate(406.974365234375,379.498291015625)"/>
<path d="M0 0 C0.98467255 -0.01283524 1.96934509 -0.02567047 2.9838562 -0.03889465 C4.57763596 -0.04997505 4.57763596 -0.04997505 6.20361328 -0.0612793 C7.84416183 -0.07338692 7.84416183 -0.07338692 9.51785278 -0.08573914 C11.83284929 -0.09957353 14.14786614 -0.11029857 16.46289062 -0.11816406 C20.00315889 -0.13539696 23.54249819 -0.17929237 27.08251953 -0.22338867 C29.33121058 -0.23351394 31.57990956 -0.24203056 33.82861328 -0.2487793 C35.41632034 -0.27504143 35.41632034 -0.27504143 37.03610229 -0.30183411 C41.51570853 -0.28860939 44.35717451 -0.26847267 48.31347656 1.95751953 C50.49509303 4.59559819 50.78253593 6.68783898 50.91064453 10.0793457 C49.65604832 13.53431065 47.29515476 15.47544369 44.14892578 17.17700195 C40.43416952 17.8876401 36.79243693 17.83108365 33.02001953 17.77075195 C31.41913231 17.77081238 31.41913231 17.77081238 29.78590393 17.77087402 C27.53583874 17.76552576 25.2857736 17.74797298 23.03588867 17.71899414 C19.59447096 17.67709989 16.15500895 17.67793168 12.71337891 17.68481445 C10.5239122 17.67432278 8.33445556 17.6613848 6.14501953 17.64575195 C5.1178331 17.64555054 4.09064667 17.64534912 3.03233337 17.6451416 C-5.97245656 17.49608613 -5.97245656 17.49608613 -9.85107422 14.17700195 C-12.17856767 10.68576178 -12.35406738 9.28477944 -11.85107422 5.17700195 C-8.44903079 0.83646379 -5.33274243 0.06058456 0 0 Z " fill="#3F3F3F" transform="translate(632.85107421875,639.822998046875)"/>
<path d="M0 0 C1.01122421 -0.00315216 2.02244843 -0.00630432 3.0643158 -0.009552 C4.16014481 -0.00752777 5.25597382 -0.00550354 6.38500977 -0.00341797 C7.50706314 -0.00437469 8.62911652 -0.00533142 9.78517151 -0.00631714 C12.16163184 -0.00699861 14.53809402 -0.00514663 16.91455078 -0.00097656 C20.55774105 0.00436714 24.20080775 -0.00092013 27.84399414 -0.00732422 C30.14933296 -0.00666333 32.45467169 -0.00538196 34.76000977 -0.00341797 C35.85381454 -0.0054422 36.94761932 -0.00746643 38.0745697 -0.009552 C39.08894608 -0.00639984 40.10332245 -0.00324768 41.1484375 0 C42.04175278 0.00079559 42.93506805 0.00159119 43.85545349 0.00241089 C46.13891602 0.12939453 46.13891602 0.12939453 49.13891602 1.12939453 C51.23218593 3.84289256 52.08525266 5.80070646 52.63891602 9.19189453 C52.13891602 12.12939453 52.13891602 12.12939453 49.76391602 14.44189453 C46.21137352 16.72567185 44.50438801 17.25342838 40.32202148 17.24291992 C39.32113495 17.24284439 38.32024841 17.24276886 37.28903198 17.24269104 C36.20566559 17.23752975 35.12229919 17.23236847 34.00610352 17.22705078 C32.89913116 17.22563583 31.79215881 17.22422089 30.65164185 17.22276306 C27.10570609 17.21715226 23.55983279 17.2045979 20.01391602 17.19189453 C17.61417734 17.18688092 15.21443768 17.18231778 12.81469727 17.17822266 C6.92274876 17.16717931 1.03083685 17.15043063 -4.86108398 17.12939453 C-4.86108398 16.46939453 -4.86108398 15.80939453 -4.86108398 15.12939453 C-5.50045898 14.94376953 -6.13983398 14.75814453 -6.79858398 14.56689453 C-8.86108398 13.12939453 -8.86108398 13.12939453 -9.79858398 9.81689453 C-9.86705423 5.77714981 -9.33939095 4.25022552 -6.86108398 1.12939453 C-4.39216164 -0.10506664 -2.76088501 0.00246106 0 0 Z " fill="#424242" transform="translate(630.861083984375,587.87060546875)"/>
<path d="M0 0 C1.15982895 -0.00619858 2.3196579 -0.01239716 3.51463318 -0.01878357 C5.96311606 -0.02587895 8.41164721 -0.02271275 10.86010742 -0.01000977 C14.61141327 0.00387043 18.36023234 -0.03024098 22.11132812 -0.06835938 C24.49088603 -0.06931042 26.87044706 -0.06745256 29.25 -0.0625 C30.93446983 -0.08238731 30.93446983 -0.08238731 32.65296936 -0.10267639 C40.38620813 -0.00989825 40.38620813 -0.00989825 43.76147461 2.88305664 C45.48094076 6.44011526 45.69677041 8.66643777 45.05859375 12.56640625 C42.85809247 15.25283779 41.03880929 16.42194084 37.58395386 16.93112183 C34.421255 17.08079612 31.28330717 17.09423018 28.1171875 17.0625 C26.95735855 17.06395523 25.7975296 17.06541046 24.60255432 17.06690979 C22.15403731 17.06525178 19.70550978 17.05370158 17.25708008 17.03295898 C13.50622396 17.0039845 9.75677946 17.0123572 6.00585938 17.02539062 C3.62629521 17.01915377 1.2467355 17.01076326 -1.1328125 17 C-2.25579239 17.00293564 -3.37877228 17.00587128 -4.53578186 17.00889587 C-5.58044113 16.9962117 -6.6251004 16.98352753 -7.70141602 16.97045898 C-8.61899185 16.965056 -9.53656769 16.95965302 -10.48194885 16.9540863 C-13.41155018 16.49229827 -14.79676103 15.58474371 -16.94140625 13.56640625 C-17.5078125 11.4453125 -17.5078125 11.4453125 -17.50390625 9.12890625 C-17.52582031 8.36707031 -17.54773438 7.60523438 -17.5703125 6.8203125 C-15.33737923 -1.18218746 -6.65744694 -0.02945707 0 0 Z " fill="#3E3E3E" transform="translate(637.94140625,535.43359375)"/>
<path d="M0 0 C1.04465927 -0.01591187 2.08931854 -0.03182373 3.16563416 -0.04821777 C4.28861404 -0.04841919 5.41159393 -0.04862061 6.56860352 -0.04882812 C8.30691185 -0.06024841 8.30691185 -0.06024841 10.08033752 -0.07189941 C12.53058722 -0.08270259 14.98088297 -0.08555266 17.43115234 -0.08105469 C21.18022442 -0.08008261 24.92724896 -0.12170094 28.67602539 -0.16601562 C31.0568805 -0.17122272 33.43774272 -0.17391082 35.81860352 -0.17382812 C36.93955917 -0.19022339 38.06051483 -0.20661865 39.21543884 -0.22351074 C46.95212272 -0.15480268 46.95212272 -0.15480268 51.00244141 2.7265625 C52.76000977 5.41992188 52.76000977 5.41992188 52.82250977 9.10742188 C51.76000977 12.41992188 51.76000977 12.41992188 49.69750977 13.85742188 C48.73844727 14.13585937 48.73844727 14.13585937 47.76000977 14.41992188 C47.76000977 15.07992188 47.76000977 15.73992187 47.76000977 16.41992188 C40.28542152 16.54660494 32.81110961 16.63422437 25.33569336 16.69458008 C22.79229385 16.71973815 20.24896673 16.75386819 17.70581055 16.79711914 C14.05182039 16.85771008 10.39878526 16.88611954 6.74438477 16.90820312 C5.03638702 16.94691277 5.03638702 16.94691277 3.29388428 16.98640442 C-4.59503718 16.98921296 -4.59503718 16.98921296 -7.95581055 14.02270508 C-9.94263752 9.99579209 -9.81596198 7.88370292 -9.23999023 3.41992188 C-6.31734051 0.47635813 -4.06694908 0.03731617 0 0 Z " fill="#3E3E3E" transform="translate(630.239990234375,431.580078125)"/>
<path d="M0 0 C1.04465927 -0.01906403 2.08931854 -0.03812805 3.16563416 -0.05776978 C4.85010399 -0.05503555 4.85010399 -0.05503555 6.56860352 -0.05224609 C8.30691185 -0.06510147 8.30691185 -0.06510147 10.08033752 -0.07821655 C12.53058255 -0.08970006 14.98089576 -0.09070586 17.43115234 -0.08203125 C21.18062631 -0.07571205 24.926942 -0.12261999 28.67602539 -0.17333984 C31.05688078 -0.17788604 33.43774466 -0.17929272 35.81860352 -0.17724609 C36.93955917 -0.19566559 38.06051483 -0.21408508 39.21543884 -0.23306274 C46.75631367 -0.1434082 46.75631367 -0.1434082 49.60696411 1.82403564 C51.92911599 4.445553 52.75230999 6.16432772 52.82250977 9.67431641 C51.60649817 12.96470074 50.46003102 14.33679899 47.76000977 16.54931641 C45.29382324 17.0639801 45.29382324 17.0639801 42.50415039 17.08276367 C41.45626343 17.09860001 40.40837646 17.11443634 39.32873535 17.13075256 C38.20261841 17.12579269 37.07650146 17.12083282 35.91625977 17.11572266 C34.75501587 17.12192123 33.59377197 17.12811981 32.39733887 17.13450623 C29.94287963 17.1416082 27.48837225 17.13842391 25.03393555 17.12573242 C21.27375893 17.11186711 17.51606988 17.14593602 13.75610352 17.18408203 C11.37198832 17.18503319 8.98787001 17.18317456 6.60375977 17.17822266 C5.47764282 17.19148087 4.35152588 17.20473907 3.19128418 17.21839905 C-4.56608965 17.12561802 -4.56608965 17.12561802 -7.94897461 14.23266602 C-9.64628087 10.70484962 -9.80260874 8.4173186 -9.23999023 4.54931641 C-6.40966077 0.9269753 -4.55115728 0.04570513 0 0 Z " fill="#3D3D3D" transform="translate(630.239990234375,483.45068359375)"/>
<path d="M0 0 C1.23321739 -0.00361794 1.23321739 -0.00361794 2.49134827 -0.00730896 C4.22531978 -0.00633211 5.95932309 0.00702303 7.69311523 0.03198242 C10.33621101 0.06625783 12.97595404 0.05264375 15.61914062 0.03320312 C17.30860788 0.04010332 18.99806656 0.04977729 20.6875 0.0625 C21.47205063 0.05754013 22.25660126 0.05258026 23.06492615 0.04747009 C28.78095492 0.16910583 32.27629645 1.49504645 36.41015625 5.62890625 C36.78515625 8.37890625 36.78515625 8.37890625 36.41015625 11.62890625 C33.97265625 14.44140625 33.97265625 14.44140625 31.41015625 16.62890625 C30.91515625 17.12390625 30.91515625 17.12390625 30.41015625 17.62890625 C27.72964926 17.74240623 25.07590682 17.79309065 22.39453125 17.796875 C21.18256073 17.8018676 21.18256073 17.8018676 19.94610596 17.80696106 C18.23116629 17.8120354 16.5162167 17.81436923 14.80126953 17.81420898 C12.18505349 17.81638554 9.56926578 17.834508 6.953125 17.85351562 C5.28776186 17.85645148 3.62239671 17.85843499 1.95703125 17.859375 C1.1766449 17.86656052 0.39625854 17.87374603 -0.40777588 17.88114929 C-4.55384587 17.86384521 -7.93547677 17.67926045 -11.58984375 15.62890625 C-14.09016029 11.87843143 -14.12587929 10.07034359 -13.58984375 5.62890625 C-9.57832133 0.21312957 -6.28418291 -0.10592382 0 0 Z " fill="#444444" transform="translate(307.58984375,639.37109375)"/>
<path d="M0 0 C0.81977325 -0.00478363 1.63954651 -0.00956726 2.48416138 -0.01449585 C4.21390711 -0.0178894 5.94371744 -0.00872491 7.67333984 0.01220703 C10.30583664 0.03891563 12.93404381 0.01248064 15.56640625 -0.01953125 C17.25261349 -0.01622571 18.93881809 -0.00981648 20.625 0 C21.79408401 -0.01518173 21.79408401 -0.01518173 22.98678589 -0.03067017 C28.92387617 0.0950799 31.98495354 1.72426051 36.4453125 5.6640625 C37.1953125 8.6640625 37.1953125 8.6640625 36.4453125 11.6640625 C34.0078125 14.4765625 34.0078125 14.4765625 31.4453125 16.6640625 C30.9503125 17.1590625 30.9503125 17.1590625 30.4453125 17.6640625 C24.96074634 17.95674065 19.47356233 17.97816542 13.98193359 18.01416016 C12.13121955 18.03069887 10.28056884 18.05796149 8.43017578 18.09619141 C5.76300897 18.15103213 3.09734264 18.17284669 0.4296875 18.1875 C-0.80651337 18.22150406 -0.80651337 18.22150406 -2.06768799 18.25619507 C-6.36229482 18.24044658 -8.05520742 18.04645928 -11.57714844 15.35009766 C-13.5546875 12.6640625 -13.5546875 12.6640625 -14.1796875 9.1640625 C-12.74900249 1.15222647 -7.27854315 -0.09403077 0 0 Z " fill="#434343" transform="translate(307.5546875,587.3359375)"/>
<path d="M0 0 C0.86890869 -0.00619858 1.73781738 -0.01239716 2.63305664 -0.01878357 C4.46532066 -0.0258695 6.29764924 -0.02272914 8.12988281 -0.01000977 C10.9289416 0.00386383 13.72466046 -0.03023895 16.5234375 -0.06835938 C18.30729248 -0.06931058 20.09115164 -0.06745169 21.875 -0.0625 C23.12518921 -0.08238731 23.12518921 -0.08238731 24.40063477 -0.10267639 C28.70802303 -0.03384557 30.45548618 0.20178339 34 2.88305664 C35.9375 5.56640625 35.9375 5.56640625 36 9.12890625 C34.80742445 12.98723892 34.18203813 14.21569419 30.9375 16.56640625 C27.86561314 17.16169678 24.83994496 17.12691882 21.71875 17.09765625 C20.37641296 17.10339661 20.37641296 17.10339661 19.00695801 17.10925293 C17.11742018 17.11197145 15.22784468 17.10461441 13.33837891 17.08789062 C10.4473881 17.06647948 7.55888233 17.08769359 4.66796875 17.11328125 C2.83072369 17.11063796 0.99348017 17.10551296 -0.84375 17.09765625 C-2.13919739 17.10980164 -2.13919739 17.10980164 -3.46081543 17.12219238 C-9.44690411 17.02873906 -9.44690411 17.02873906 -12.60327148 14.65820312 C-14.17272595 12.40839789 -14.63030837 11.28429369 -14.625 8.56640625 C-14.64691406 7.90640625 -14.66882813 7.24640625 -14.69140625 6.56640625 C-12.55621363 -0.22377151 -5.8919605 -0.03506272 0 0 Z " fill="#3F3F3F" transform="translate(308.0625,535.43359375)"/>
<path d="M0 0 C0.87032364 -0.0038269 1.74064728 -0.00765381 2.63734436 -0.01159668 C4.47560789 -0.01431517 6.31391014 -0.00695835 8.15209961 0.00976562 C10.95970377 0.03115134 13.76474163 0.00997627 16.57226562 -0.015625 C18.36068271 -0.01298121 20.14909821 -0.00785516 21.9375 0 C22.77409653 -0.00809692 23.61069305 -0.01619385 24.47264099 -0.02453613 C28.52103228 0.04027913 30.55864019 0.23108482 34.06445312 2.43945312 C36.03515625 4.53125 36.03515625 4.53125 36.6640625 6.53125 C36.64214844 7.19125 36.62023437 7.85125 36.59765625 8.53125 C36.59958984 9.52125 36.59958984 9.52125 36.6015625 10.53125 C35.73956952 13.57497692 34.57788919 14.62157376 32.03515625 16.53125 C28.96537167 17.13451315 25.93684033 17.09175543 22.81640625 17.0625 C21.47406921 17.06824036 21.47406921 17.06824036 20.10461426 17.07409668 C18.21507643 17.0768152 16.32550093 17.06945816 14.43603516 17.05273438 C11.54504435 17.03132323 8.65653858 17.05253734 5.765625 17.078125 C3.92837994 17.07548171 2.09113642 17.07035671 0.25390625 17.0625 C-1.04154114 17.07464539 -1.04154114 17.07464539 -2.36315918 17.08703613 C-8.34870418 16.99359129 -8.34870418 16.99359129 -11.5078125 14.62304688 C-13.08443359 12.35956003 -13.50750474 11.26155308 -13.46484375 8.53125 C-13.4803125 7.54125 -13.4803125 7.54125 -13.49609375 6.53125 C-11.65900557 -0.38484669 -5.94057856 -0.05735657 0 0 Z " fill="#3E3E3E" transform="translate(306.96484375,483.46875)"/>
<path d="M0 0 C1.14250912 2.28501825 1.11914241 3.51914417 1.10743046 6.05673409 C1.10593811 6.9106647 1.10444576 7.76459532 1.10290819 8.64440262 C1.0961044 9.58796832 1.08930061 10.53153403 1.08229065 11.50369263 C1.07906152 12.50178825 1.07583239 13.49988388 1.07250541 14.52822483 C1.06038024 17.89401717 1.04101787 21.25972991 1.02172852 24.62548828 C1.01159103 27.02969182 1.00189679 29.43389726 0.99261475 31.83810425 C0.97158632 37.02517519 0.94745648 42.21222199 0.92053413 47.39926529 C0.88161398 54.89891493 0.84824311 62.39858112 0.81623887 69.89826308 C0.7641664 82.06517031 0.70758846 94.23205226 0.64819336 106.39892578 C0.59049655 118.21987931 0.53491159 130.04083965 0.48217773 141.86181641 C0.47892802 142.59011788 0.4756783 143.31841935 0.4723301 144.06879057 C0.45604074 147.72236253 0.43979301 151.37593468 0.42356598 155.02950692 C0.28883275 185.35303702 0.14596736 215.6765213 0 246 C-18.48 246 -36.96 246 -56 246 C-56 246.66 -56 247.32 -56 248 C-57.65 248 -59.3 248 -61 248 C-59.23613744 245.73528152 -58.36425056 245.052049 -55.47529602 244.63923645 C-53.96639046 244.6492292 -53.96639046 244.6492292 -52.42700195 244.65942383 C-50.71556755 244.65976372 -50.71556755 244.65976372 -48.96955872 244.66011047 C-47.73823715 244.67559433 -46.50691559 244.69107819 -45.23828125 244.70703125 C-43.34688667 244.71339851 -43.34688667 244.71339851 -41.4172821 244.71989441 C-38.06825057 244.73385373 -34.71983242 244.76079896 -31.37097168 244.79400635 C-27.95244647 244.82471895 -24.53385785 244.83840224 -21.11523438 244.85351562 C-14.40998651 244.88662777 -7.70502867 244.93685982 -1 245 C-1.00092179 243.74341111 -1.00184359 242.48682222 -1.00279331 241.19215488 C-1.0244295 211.39430168 -1.04092965 181.5964505 -1.05106533 151.79859138 C-1.05231611 148.13468916 -1.05361042 144.47078696 -1.05493164 140.80688477 C-1.05519395 140.07743707 -1.05545626 139.34798938 -1.05572652 138.59643721 C-1.06008333 126.76983332 -1.06797093 114.94323426 -1.0771528 103.11663324 C-1.08648904 90.99046565 -1.09205555 78.8643006 -1.09408849 66.73812956 C-1.09546378 59.24962338 -1.09981469 51.76113087 -1.10791647 44.2726289 C-1.11380427 38.54010375 -1.11445904 32.80758746 -1.11310768 27.07505989 C-1.1133842 24.71630773 -1.11539184 22.35755509 -1.11920547 19.998806 C-1.12413606 16.79366382 -1.12300065 13.5885815 -1.12025452 10.38343811 C-1.12316736 9.43695957 -1.1260802 8.49048102 -1.12908131 7.51532131 C-1.11412121 1.11412121 -1.11412121 1.11412121 0 0 Z " fill="#ABABAB" transform="translate(263,447)"/>
<path d="M0 0 C18.48 0 36.96 0 56 0 C54.02 0.99 54.02 0.99 52 2 C51.67 2.33 51.34 2.66 51 3 C49.37420782 3.12281952 47.74322996 3.17782504 46.11303711 3.20532227 C45.07203354 3.22526749 44.03102997 3.24521271 42.95848083 3.26576233 C41.8262056 3.28247482 40.69393036 3.29918732 39.52734375 3.31640625 C37.79817467 3.3475779 37.79817467 3.3475779 36.03407288 3.37937927 C32.33527843 3.44499964 28.63641041 3.50381755 24.9375 3.5625 C22.43684121 3.60567335 19.93618999 3.64928724 17.43554688 3.69335938 C11.29044338 3.80069368 5.14526596 3.90243643 -1 4 C-0.67 2.68 -0.34 1.36 0 0 Z " fill="#383838" transform="translate(406,641)"/>
<path d="M0 0 C1.50110321 0.00022659 1.50110321 0.00022659 3.03253174 0.00045776 C4.10557556 0.01078033 5.17861938 0.02110291 6.28417969 0.03173828 C7.38832214 0.03456818 8.4924646 0.03739807 9.63006592 0.04031372 C13.15550589 0.05150589 16.68069154 0.07660903 20.20605469 0.10205078 C22.59667602 0.11208181 24.98730133 0.12120745 27.37792969 0.12939453 C33.23739142 0.15144209 39.09670488 0.18491025 44.95605469 0.22705078 C44.95605469 0.55705078 44.95605469 0.88705078 44.95605469 1.22705078 C42.97605469 1.55705078 40.99605469 1.88705078 38.95605469 2.22705078 C38.95605469 2.55705078 38.95605469 2.88705078 38.95605469 3.22705078 C25.09605469 3.22705078 11.23605469 3.22705078 -3.04394531 3.22705078 C-3.04394531 3.88705078 -3.04394531 4.54705078 -3.04394531 5.22705078 C-5.35394531 5.55705078 -7.66394531 5.88705078 -10.04394531 6.22705078 C-9.79394531 4.35205078 -9.79394531 4.35205078 -9.04394531 2.22705078 C-5.99664701 0.25851391 -3.58335164 -0.01809774 0 0 Z " fill="#5A5A5A" transform="translate(633.0439453125,639.77294921875)"/>
<path d="M0 0 C5.23273331 -0.04935824 10.46533176 -0.08569949 15.69824219 -0.10986328 C17.47919067 -0.11993431 19.26012257 -0.13359185 21.04101562 -0.15087891 C23.59769783 -0.17507913 26.15416185 -0.18647184 28.7109375 -0.1953125 C29.90944839 -0.21079636 29.90944839 -0.21079636 31.13217163 -0.22659302 C33.0895722 -0.22699226 35.04643077 -0.12241069 37 0 C37.66 0.66 38.32 1.32 39 2 C34.75397856 3.06061259 30.8749031 3.03535509 26.51171875 2.87890625 C25.80852005 2.85529526 25.10532135 2.83168427 24.3808136 2.80735779 C22.14947928 2.7311907 19.918534 2.64696693 17.6875 2.5625 C16.16863841 2.50923218 14.6497582 2.45649215 13.13085938 2.40429688 C9.42033791 2.2756401 5.71012176 2.13975943 2 2 C2 2.66 2 3.32 2 4 C1.01 4 0.02 4 -1 4 C-0.67 2.68 -0.34 1.36 0 0 Z " fill="#3A3A3A" transform="translate(302,641)"/>
<path d="M0 0 C1.16097702 0.00022659 2.32195404 0.00045319 3.51811218 0.00068665 C4.77130753 0.0161705 6.02450287 0.03165436 7.31567383 0.04760742 C8.59879959 0.05185226 9.88192535 0.05609711 11.20393372 0.06047058 C14.61206645 0.07191455 18.01981448 0.10137722 21.42779541 0.13458252 C24.90664465 0.16529345 28.38555617 0.17897806 31.86450195 0.1940918 C38.68822751 0.22624782 45.51169781 0.27743841 52.33520508 0.34057617 C52.33520508 0.67057617 52.33520508 1.00057617 52.33520508 1.34057617 C33.85520508 1.34057617 15.37520508 1.34057617 -3.66479492 1.34057617 C-3.66479492 2.00057617 -3.66479492 2.66057617 -3.66479492 3.34057617 C-5.31479492 3.34057617 -6.96479492 3.34057617 -8.66479492 3.34057617 C-6.0807016 0.00610792 -4.10628589 -0.02672203 0 0 Z " fill="#797979" transform="translate(210.664794921875,691.659423828125)"/>
<path d="M0 0 C0.48590022 7.28850325 0.48590022 7.28850325 -1.75 10.5625 C-4 12 -4 12 -6.25 11.75 C-7.11625 11.37875 -7.11625 11.37875 -8 11 C-7.33333333 9.33333333 -6.66666667 7.66666667 -6 6 C-5.690625 5.0925 -5.38125 4.185 -5.0625 3.25 C-4.711875 2.5075 -4.36125 1.765 -4 1 C-1 0 -1 0 0 0 Z " fill="#424242" transform="translate(561,540)"/>
<path d="M0 0 C0 0.33 0 0.66 0 1 C-2.64 1.33 -5.28 1.66 -8 2 C-8.33 2.99 -8.66 3.98 -9 5 C-9.66 5 -10.32 5 -11 5 C-10.34 5.721875 -9.68 6.44375 -9 7.1875 C-6.8464147 10.21597933 -6.58823246 11.39703406 -7 15 C-10.875 13.25 -10.875 13.25 -12 11 C-12.35173852 7.20122401 -12.52701444 4.85639847 -10.5 1.5625 C-6.86353539 -0.71029038 -4.24217465 -0.28281164 0 0 Z " fill="#4C4C4C" transform="translate(503,432)"/>
<path d="M0 0 C0 0.66 0 1.32 0 2 C-0.5775 2.268125 -1.155 2.53625 -1.75 2.8125 C-4.05747896 3.95053246 -4.05747896 3.95053246 -6.125 5.625 C-8 7 -8 7 -10 7 C-10 6.34 -10 5.68 -10 5 C-11.32 4.67 -12.64 4.34 -14 4 C-12.0429132 3.32968281 -10.08428887 2.66385317 -8.125 2 C-7.03445313 1.62875 -5.94390625 1.2575 -4.8203125 0.875 C-2 0 -2 0 0 0 Z " fill="#D9D9D9" transform="translate(626,392)"/>
<path d="M0 0 C1.0257259 4.41062136 1.03684712 6.92630576 -1 11 C-1.33 11 -1.66 11 -2 11 C-2.103125 9.741875 -2.20625 8.48375 -2.3125 7.1875 C-2.64858808 4.39500343 -2.80025876 3.25566879 -4.5625 1 C-5.036875 0.67 -5.51125 0.34 -6 0 C-3.50907189 -1.24546405 -2.58919267 -0.7767578 0 0 Z " fill="#D6D6D6" transform="translate(470,641)"/>
<path d="M0 0 C-2.07866562 2.07866562 -3.22106569 2.56922921 -5.9375 3.5 C-8.71216611 4.45427769 -10.49805605 5.33203737 -13 7 C-13.99 6.01 -14.98 5.02 -16 4 C-13.71144298 3.13656269 -11.4198072 2.2840189 -9.125 1.4375 C-8.47402344 1.19064453 -7.82304687 0.94378906 -7.15234375 0.68945312 C-2.2265625 -1.11328125 -2.2265625 -1.11328125 0 0 Z " fill="#5F5F5F" transform="translate(306,431)"/>
<path d="M0 0 C0.99 0.33 1.98 0.66 3 1 C3.66 0.67 4.32 0.34 5 0 C4.75 1.875 4.75 1.875 4 4 C1.41847698 5.72101535 0.15081975 6 -3 6 C-2.625 3.5625 -2.625 3.5625 -2 1 C-1.34 0.67 -0.68 0.34 0 0 Z " fill="#474747" transform="translate(310,441)"/>
<path d="M0 0 C2.90802461 2.21928194 4.95312762 3.92969143 7 7 C2.25 8.125 2.25 8.125 0 7 C0 4.69 0 2.38 0 0 Z " fill="#EBEBEB" transform="translate(491,392)"/>
<path d="M0 0 C-0.99 0.33 -1.98 0.66 -3 1 C-2.67 1.99 -2.34 2.98 -2 4 C-4.64 3.67 -7.28 3.34 -10 3 C-10.33 3.66 -10.66 4.32 -11 5 C-11.66 4.34 -12.32 3.68 -13 3 C-11.21189234 2.30329584 -9.41937948 1.61788811 -7.625 0.9375 C-6.62726562 0.55464844 -5.62953125 0.17179687 -4.6015625 -0.22265625 C-2 -1 -2 -1 0 0 Z " fill="#5F5F5F" transform="translate(618,378)"/>
<path d="M0 0 C1.32 0.66 2.64 1.32 4 2 C4 2.99 4 3.98 4 5 C2.02 5.99 2.02 5.99 0 7 C-0.66 6.34 -1.32 5.68 -2 5 C-1.34 4.34 -0.68 3.68 0 3 C0 2.01 0 1.02 0 0 Z " fill="#535353" transform="translate(678,641)"/>
<path d="M0 0 C3.5 0.25 3.5 0.25 5.5 2.25 C4.84 2.25 4.18 2.25 3.5 2.25 C3.5 3.57 3.5 4.89 3.5 6.25 C2.84 6.25 2.18 6.25 1.5 6.25 C1.5 4.6 1.5 2.95 1.5 1.25 C-0.81 1.58 -3.12 1.91 -5.5 2.25 C-3.5 0.25 -3.5 0.25 0 0 Z " fill="#5D5D5D" transform="translate(709.5,344.75)"/>
<path d="M0 0 C1.98 0 3.96 0 6 0 C6 3 6 3 4 6 C2.62437146 4.71034824 1.29233607 3.37310707 0 2 C0 1.34 0 0.68 0 0 Z " fill="#E6E6E6" transform="translate(337,481)"/>
<path d="M0 0 C1.75 1.4375 1.75 1.4375 3 3 C0.36 3.66 -2.28 4.32 -5 5 C-4.67 3.68 -4.34 2.36 -4 1 C-2.1875 0.3125 -2.1875 0.3125 0 0 Z " fill="#E8E8E8" transform="translate(310,425)"/>
<path d="M0 0 C1.65 0.33 3.3 0.66 5 1 C4.01 2.485 4.01 2.485 3 4 C2.34 4 1.68 4 1 4 C0.67 4.99 0.34 5.98 0 7 C-0.66 6.34 -1.32 5.68 -2 5 C-1.34 3.35 -0.68 1.7 0 0 Z " fill="#E9E9E9" transform="translate(492,377)"/>
<path d="M0 0 C0.33 0 0.66 0 1 0 C1.66 2.64 2.32 5.28 3 8 C2.34 8 1.68 8 1 8 C0.67 8.66 0.34 9.32 0 10 C-0.99 9.67 -1.98 9.34 -3 9 C-2.34 8.01 -1.68 7.02 -1 6 C-0.60986284 4.0103005 -0.26797351 2.00980131 0 0 Z " fill="#E1E1E1" transform="translate(468,541)"/>
<path d="M0 0 C0.33 0 0.66 0 1 0 C2.125 7.625 2.125 7.625 1 11 C0.34 11 -0.32 11 -1 11 C-0.67 7.37 -0.34 3.74 0 0 Z " fill="#DDDDDD" transform="translate(490,437)"/>
<path d="M0 0 C0.99 0 1.98 0 3 0 C3.125 2.875 3.125 2.875 3 6 C2.34 6.66 1.68 7.32 1 8 C1 6.68 1 5.36 1 4 C0.34 3.67 -0.32 3.34 -1 3 C-0.67 2.01 -0.34 1.02 0 0 Z " fill="#535353" transform="translate(558,332)"/>
<path d="M0 0 C1.98362069 2.91708924 1.9876191 4.12380904 1.625 7.75 C1.41875 8.8225 1.2125 9.895 1 11 C0.34 10.67 -0.32 10.34 -1 10 C-1.02689216 8.52093108 -1.04634621 7.04172517 -1.0625 5.5625 C-1.07410156 4.73878906 -1.08570313 3.91507813 -1.09765625 3.06640625 C-1 1 -1 1 0 0 Z " fill="#646464" transform="translate(622,539)"/>
<path d="M0 0 C1.32 1.32 2.64 2.64 4 4 C2.35 4.33 0.7 4.66 -1 5 C-1.66 4.01 -2.32 3.02 -3 2 C-2.34 2 -1.68 2 -1 2 C-0.67 1.34 -0.34 0.68 0 0 Z " fill="#E6E6E6" transform="translate(562,640)"/>
<path d="M0 0 C0.66 1.32 1.32 2.64 2 4 C2.66 4 3.32 4 4 4 C3.67 5.65 3.34 7.3 3 9 C2.01 8.34 1.02 7.68 0 7 C-0.1875 3.375 -0.1875 3.375 0 0 Z " fill="#5F5F5F" transform="translate(491,541)"/>
<path d="M0 0 C1.65 0 3.3 0 5 0 C4.67 3.3 4.34 6.6 4 10 C3.67 10 3.34 10 3 10 C3 7.36 3 4.72 3 2 C2.01 1.67 1.02 1.34 0 1 C0 0.67 0 0.34 0 0 Z " fill="#C0C0C0" transform="translate(464,433)"/>
<path d="M0 0 C0.66 0.66 1.32 1.32 2 2 C0.71034824 3.37562854 -0.62689293 4.70766393 -2 6 C-2.66 6 -3.32 6 -4 6 C-2.84826645 3.53199953 -1.95216435 1.95216435 0 0 Z " fill="#EDEDED" transform="translate(467,391)"/>
</svg>
