<?xml version="1.0" encoding="UTF-8"?>
<svg version="1.1" xmlns="http://www.w3.org/2000/svg" width="260" height="280">
<path d="M0 0 C85.8 0 171.6 0 260 0 C260 92.4 260 184.8 260 280 C174.2 280 88.4 280 0 280 C0 187.6 0 95.2 0 0 Z " fill="#FDFDFD" transform="translate(0,0)"/>
<path d="M0 0 C1.06098372 0.00092179 2.12196745 0.00184359 3.2151022 0.00279331 C4.42811504 0.00141865 5.64112789 0.00004398 6.8908987 -0.00137234 C8.24737478 0.00216727 9.60385061 0.00580208 10.96032619 0.00952244 C12.37917485 0.00980431 13.79802365 0.00964658 15.21687222 0.00907993 C19.08033881 0.00879194 22.94377463 0.01468892 26.80723405 0.02165389 C30.84047653 0.02788716 34.87371965 0.02849121 38.90696621 0.0296793 C46.54970549 0.03279269 54.19243053 0.04100619 61.83516353 0.05102879 C70.53393099 0.06218967 79.23269911 0.06770031 87.93147194 0.07272422 C105.83033965 0.0831888 123.72919408 0.1007884 141.6280508 0.12304783 C145.87177847 8.46978563 145.87177847 8.46978563 147.51574612 12.66113377 C147.82997524 13.45686802 148.14420437 14.25260227 148.46795559 15.07244968 C148.79406826 15.90899082 149.12018093 16.74553196 149.4561758 17.60742283 C149.80887539 18.50309971 150.16157497 19.39877659 150.52496243 20.32159519 C151.64611147 23.17073676 152.76226217 26.02180331 153.8780508 28.87304783 C154.97614123 31.66955701 156.07528232 34.4656508 157.17480373 37.26159763 C157.90221933 39.11248514 158.62854349 40.96380198 159.35375881 42.81555271 C161.19491359 47.51073564 163.05707593 52.19590463 164.95812893 56.86718845 C165.51666561 58.24405827 165.51666561 58.24405827 166.08648586 59.64874363 C166.79611 61.39433226 167.50998047 63.13820249 168.22869778 64.88006687 C168.54449795 65.65795567 168.86029812 66.43584446 169.18566799 67.23730564 C169.46513271 67.91787022 169.74459743 68.59843479 170.03253078 69.29962254 C170.6280508 71.12304783 170.6280508 71.12304783 170.6280508 74.12304783 C167.9880508 74.12304783 165.3480508 74.12304783 162.6280508 74.12304783 C162.6280508 111.08304783 162.6280508 148.04304783 162.6280508 186.12304783 C165.2680508 186.12304783 167.9080508 186.12304783 170.6280508 186.12304783 C170.6280508 188.76304783 170.6280508 191.40304783 170.6280508 194.12304783 C103.9680508 194.12304783 37.3080508 194.12304783 -31.3719492 194.12304783 C-31.3719492 191.48304783 -31.3719492 188.84304783 -31.3719492 186.12304783 C-28.7319492 186.12304783 -26.0919492 186.12304783 -23.3719492 186.12304783 C-23.3719492 149.16304783 -23.3719492 112.20304783 -23.3719492 74.12304783 C-26.0119492 74.12304783 -28.6519492 74.12304783 -31.3719492 74.12304783 C-30.77870306 70.81501925 -29.97637002 67.80855278 -28.74890232 64.68188572 C-28.41765354 63.832318 -28.08640476 62.98275028 -27.74511814 62.10743809 C-27.38478489 61.19606586 -27.02445164 60.28469364 -26.6531992 59.34570408 C-26.2764304 58.38393757 -25.8996616 57.42217106 -25.51147556 56.43126011 C-24.70975433 54.38708338 -23.90603163 52.34369067 -23.10046482 50.30102634 C-21.90014878 47.25706113 -20.70576773 44.21082656 -19.5125742 41.16406345 C-15.51622419 30.97860535 -11.46471619 20.81611111 -7.3406992 10.68164158 C-6.95659885 9.73378284 -6.57249851 8.78592411 -6.17675877 7.80934238 C-5.82287083 6.94405415 -5.46898289 6.07876591 -5.10437107 5.18725681 C-4.63734776 4.04232006 -4.63734776 4.04232006 -4.16088963 2.87425327 C-3.00318226 0.30449848 -2.91321086 0.15112645 0 0 Z " fill="#070707" transform="translate(60.371949195861816,32.876952171325684)"/>
<path d="M0 0 C0.9724916 0.00092179 1.9449832 0.00184359 2.94694424 0.00279331 C4.05898724 0.00141865 5.17103024 0.00004398 6.31677151 -0.00137234 C7.54747372 0.00222294 8.77817593 0.00581821 10.04617214 0.00952244 C11.33378948 0.00937641 12.62140682 0.00923038 13.94804287 0.00907993 C17.48920685 0.00879197 21.03033724 0.01468847 24.57149339 0.02165389 C28.26840913 0.02788766 31.96532556 0.02849125 35.66224575 0.0296793 C42.66749824 0.03279255 49.6727352 0.04100584 56.67798084 0.05102879 C64.65124801 0.06219013 72.6245159 0.06770043 80.59778893 0.07272422 C97.00368814 0.08318846 113.40957172 0.10078778 129.81545925 0.12304783 C130.61717314 1.71031788 131.41702325 3.29852939 132.21609402 4.88713169 C132.88452076 6.21363129 132.88452076 6.21363129 133.56645107 7.56692886 C135.14839287 10.8044028 136.46623336 14.05712942 137.75295925 17.42382908 C138.00037868 18.06692524 138.24779812 18.7100214 138.50271511 19.37260532 C139.2783538 21.39181446 140.04708183 23.41356606 140.81545925 25.43554783 C141.32801485 26.77361676 141.84103371 28.11150833 142.35452175 29.4492197 C143.36012432 32.07016162 144.36077203 34.69291966 145.358428 37.31689548 C146.32341408 39.84949854 147.30574528 42.37427068 148.3037405 44.89404392 C148.76135769 46.0562949 149.21897488 47.21854588 149.69045925 48.41601658 C150.10038113 49.44621922 150.510303 50.47642185 150.93264675 51.53784275 C151.81545925 54.12304783 151.81545925 54.12304783 151.81545925 57.12304783 C144.98411142 57.32663104 138.15355092 57.46629235 131.31985378 57.56250095 C128.99761633 57.60262321 126.67557961 57.65713648 124.35403347 57.72656345 C121.0073378 57.82410966 117.66332174 57.86908751 114.31545925 57.90429783 C113.28493435 57.94558811 112.25440945 57.9868784 111.19265652 58.0294199 C106.92414854 58.03205067 103.98429431 57.97358405 100.46389675 55.41186619 C98.45230425 53.39864994 96.64618713 51.29961132 94.81545925 49.12304783 C93.50389551 47.93196032 92.17303689 46.76141149 90.81545925 45.62304783 C87.30684552 42.6078329 84.06750761 39.39473616 80.82327175 36.09961033 C78.22343867 33.54024157 75.47930279 31.17620383 72.71389675 28.79882908 C69.95143632 26.36036092 67.38804867 23.75995198 64.81545925 21.12304783 C61.10277831 22.66432134 58.83430227 24.93148017 56.06545925 27.81054783 C52.40060785 31.55612283 48.65771147 35.07366567 44.6787405 38.47851658 C42.20604111 40.66092003 39.92209648 43.00527964 37.61233425 45.35742283 C35.04966054 47.8755283 32.34089494 50.20927488 29.61233425 52.54492283 C27.81334533 54.04191122 27.81334533 54.04191122 26.5055685 55.70039463 C24.24373605 57.6042971 22.90824495 57.48623127 19.9768362 57.463624 C18.99604595 57.46339741 18.0152557 57.46317081 17.00474453 57.46293736 C15.9484132 57.4474535 14.89208187 57.43196964 13.8037405 57.41601658 C12.72037914 57.41177174 11.63701778 57.40752689 10.52082729 57.40315342 C7.05628648 57.38634352 3.59232463 57.34868631 0.12795925 57.31054783 C-2.21903756 57.29550401 -4.56604349 57.28181508 -6.91305637 57.2695322 C-12.6704158 57.23643244 -18.42743692 57.18620988 -24.18454075 57.12304783 C-23.55198685 51.91117458 -21.92679146 47.47472805 -19.98141575 42.64648533 C-19.66174839 41.83998539 -19.34208103 41.03348545 -19.01272678 40.20254612 C-17.99220593 37.6321352 -16.96340149 35.06513021 -15.93454075 32.49804783 C-15.25823696 30.7964325 -14.5824509 29.09461131 -13.907197 27.39257908 C-3.08950587 0.17402147 -3.08950587 0.17402147 0 0 Z " fill="#FCFCFC" transform="translate(66.18454074859619,40.876952171325684)"/>
<path d="M0 0 C2.40728148 0.86191441 3.63566775 1.87174754 5.47094727 3.64135742 C6.11225586 4.25172852 6.75356445 4.86209961 7.41430664 5.4909668 C8.40720703 6.45679687 8.40720703 6.45679687 9.42016602 7.44213867 C10.70738372 8.67577812 11.99517383 9.9088205 13.28344727 11.14135742 C14.30036652 12.16774071 14.30036652 12.16774071 15.33782959 13.21485901 C17.47379163 15.17341255 19.44259216 16.71259898 21.80853271 18.33518982 C28.16203168 22.97800161 33.12506172 27.40166163 34.42961121 35.45213318 C35.03320325 42.39673366 34.79747141 49.32030442 34.57250977 56.27807617 C34.54448889 58.83633164 34.52315774 61.39466829 34.50819397 63.95303345 C34.45705472 69.96498784 34.339265 75.97194255 34.18795162 81.98190367 C34.01927587 88.83277323 33.93757013 95.68386095 33.8625201 102.53629565 C33.70644897 116.61144389 33.44018084 130.68265139 33.10766602 144.75463867 C29.47766602 144.75463867 25.84766602 144.75463867 22.10766602 144.75463867 C22.09364746 142.393479 22.09364746 142.393479 22.0793457 139.98461914 C22.0394293 134.13618831 21.97366455 128.28828258 21.90014648 122.44018555 C21.87194669 119.91063184 21.85072729 117.38099019 21.83666992 114.85131836 C21.81522773 111.21186322 21.76856742 107.57346452 21.71704102 103.93432617 C21.71581238 102.80598358 21.71458374 101.67764099 21.71331787 100.5151062 C21.59782567 94.30288787 21.29749256 90.46794892 17.10766602 85.75463867 C11.73300942 81.0314556 6.16611089 81.47690217 -0.64233398 81.37963867 C-1.61944336 81.34225586 -2.59655273 81.30487305 -3.60327148 81.26635742 C-9.20646853 81.19839412 -12.95583014 81.65423226 -17.46362305 85.08813477 C-22.60503545 91.0852778 -22.36062386 97.19550208 -22.40405273 104.71557617 C-22.42200394 105.86128082 -22.43995514 107.00698547 -22.45845032 108.18740845 C-22.51248835 111.83478146 -22.54642916 115.48202407 -22.57983398 119.12963867 C-22.61301269 121.60752137 -22.64750285 124.08538688 -22.68334961 126.56323242 C-22.76821158 132.62694034 -22.83505452 138.69061001 -22.89233398 144.75463867 C-26.52233398 144.75463867 -30.15233398 144.75463867 -33.89233398 144.75463867 C-34.12425631 129.91629061 -34.30249641 115.07833041 -34.4104557 100.23853397 C-34.46192616 93.34735816 -34.5320369 86.45733208 -34.64672852 79.56689453 C-34.7574056 72.91444497 -34.81521322 66.26287371 -34.84110641 59.60946465 C-34.85955299 57.07403221 -34.89557701 54.53866352 -34.94963455 52.00374031 C-35.37856595 31.05241458 -35.37856595 31.05241458 -31.72698975 26.27438354 C-29.21493311 23.99643743 -26.8368895 22.4076291 -23.89233398 20.75463867 C-21.88979414 18.92751116 -21.88979414 18.92751116 -20.26733398 17.12963867 C-17.27916566 14.08535451 -14.12154639 11.30280429 -10.87670898 8.53588867 C-8.2432973 6.17203882 -5.88136923 3.58695021 -3.53295898 0.94213867 C-1.89233398 -0.24536133 -1.89233398 -0.24536133 0 0 Z " fill="#FBFBFB" transform="translate(129.892333984375,73.245361328125)"/>
<path d="M0 0 C13.86 0 27.72 0 42 0 C42 36.96 42 73.92 42 112 C28.14 112 14.28 112 0 112 C0 75.04 0 38.08 0 0 Z " fill="#FBFBFB" transform="translate(172,107)"/>
<path d="M0 0 C13.86 0 27.72 0 42 0 C42 36.96 42 73.92 42 112 C28.14 112 14.28 112 0 112 C0 75.04 0 38.08 0 0 Z " fill="#FBFBFB" transform="translate(46,107)"/>
<path d="M0 0 C4.34873466 2.22122869 6.93642904 4.88083946 8.875 9.30078125 C9.19165075 13.65602684 9.10776269 17.94294635 8.875 22.30078125 C10.525 22.30078125 12.175 22.30078125 13.875 22.30078125 C13.875 25.27078125 13.875 28.24078125 13.875 31.30078125 C0.015 31.30078125 -13.845 31.30078125 -28.125 31.30078125 C-28.125 28.33078125 -28.125 25.36078125 -28.125 22.30078125 C-26.475 22.30078125 -24.825 22.30078125 -23.125 22.30078125 C-23.17140625 21.50414062 -23.2178125 20.7075 -23.265625 19.88671875 C-23.63092885 9.16244133 -23.63092885 9.16244133 -19.125 4.30078125 C-18.279375 3.35203125 -17.43375 2.40328125 -16.5625 1.42578125 C-11.87560528 -2.24998136 -5.43144556 -1.78718521 0 0 Z " fill="#090909" transform="translate(137.125,112.69921875)"/>
<path d="M0 0 C8.25 0 16.5 0 25 0 C25 8.25 25 16.5 25 25 C16.75 25 8.5 25 0 25 C0 16.75 0 8.5 0 0 Z " fill="#0F0F0F" transform="translate(181,119)"/>
<path d="M0 0 C8.25 0 16.5 0 25 0 C25 8.25 25 16.5 25 25 C16.75 25 8.5 25 0 25 C0 16.75 0 8.5 0 0 Z " fill="#0F0F0F" transform="translate(54,119)"/>
<path d="M0 0 C8.25 0 16.5 0 25 0 C25 7.92 25 15.84 25 24 C16.75 24 8.5 24 0 24 C0 16.08 0 8.16 0 0 Z " fill="#080808" transform="translate(181,156)"/>
<path d="M0 0 C8.25 0 16.5 0 25 0 C25 7.92 25 15.84 25 24 C16.75 24 8.5 24 0 24 C0 16.08 0 8.16 0 0 Z " fill="#080808" transform="translate(54,156)"/>
<path d="M0 0 C3.3 0 6.6 0 10 0 C10 12.21 10 24.42 10 37 C6.7 37 3.4 37 0 37 C0 24.79 0 12.58 0 0 Z " fill="#FAFAFA" transform="translate(134,182)"/>
<path d="M0 0 C3.3 0 6.6 0 10 0 C10 12.21 10 24.42 10 37 C6.7 37 3.4 37 0 37 C0 24.79 0 12.58 0 0 Z " fill="#F9F9F9" transform="translate(116,182)"/>
<path d="M0 0 C1.02867187 -0.02900391 1.02867187 -0.02900391 2.078125 -0.05859375 C5.79188144 -0.02315714 8.51306525 0.5897823 11.5 2.7265625 C14 5.625 14 5.625 14 12.625 C4.76 12.625 -4.48 12.625 -14 12.625 C-14 5.625 -14 5.625 -11.5 2.7265625 C-7.90011899 0.15129551 -4.3252572 -0.12195274 0 0 Z " fill="#EDEDED" transform="translate(130,161.375)"/>
<path d="M0 0 C2.875 1.875 2.875 1.875 5 5 C5.41588778 8.44818349 5.23299002 11.50514965 5 15 C-0.28 15 -5.56 15 -11 15 C-11.60714286 5.89285714 -11.60714286 5.89285714 -8.875 1.875 C-5.45264744 -0.35696906 -3.99977332 -0.83328611 0 0 Z " fill="#F0F0F0" transform="translate(133,120)"/>
<path d="M0 0 C0.66 0 1.32 0 2 0 C2.33 1.32 2.66 2.64 3 4 C3.66 3.67 4.32 3.34 5 3 C5 4.32 5 5.64 5 7 C5.99 7.66 6.98 8.32 8 9 C7.195625 8.814375 6.39125 8.62875 5.5625 8.4375 C4.716875 8.293125 3.87125 8.14875 3 8 C2.67 8.33 2.34 8.66 2 9 C0.00045254 9.04254356 -2.00041636 9.04080783 -4 9 C-4.66 9 -5.32 9 -6 9 C-7.32 9 -8.64 9 -10 9 C-10.625 7.125 -10.625 7.125 -11 5 C-10.34 4.34 -9.68 3.68 -9 3 C-7.328451 3.30791692 -5.66194453 3.64386903 -4 4 C-1.76832815 3.63143136 -1.76832815 3.63143136 0 3 C0 2.01 0 1.02 0 0 Z " fill="#999999" transform="translate(112,266)"/>
<path d="M0 0 C0.33 0.99 0.66 1.98 1 3 C2.98 3 4.96 3 7 3 C7 4.65 7 6.3 7 8 C7.66 8 8.32 8 9 8 C9 6.35 9 4.7 9 3 C9.99 3 10.98 3 12 3 C12.33 2.34 12.66 1.68 13 1 C13 1.66 13 2.32 13 3 C13.99 3 14.98 3 16 3 C16.33 2.34 16.66 1.68 17 1 C17 1.66 17 2.32 17 3 C17.66 3.33 18.32 3.66 19 4 C18.34 4 17.68 4 17 4 C17 5.32 17 6.64 17 8 C17.66 8.33 18.32 8.66 19 9 C18.01 9 17.02 9 16 9 C16 7.35 16 5.7 16 4 C15.01 4 14.02 4 13 4 C13 5.32 13 6.64 13 8 C13.66 8.33 14.32 8.66 15 9 C11.04 9 7.08 9 3 9 C3 7.35 3 5.7 3 4 C2.34 4 1.68 4 1 4 C1 5.65 1 7.3 1 9 C0.67 9 0.34 9 0 9 C0 6.03 0 3.06 0 0 Z " fill="#747474" transform="translate(63,266)"/>
<path d="M0 0 C1.77503906 0.03480469 1.77503906 0.03480469 3.5859375 0.0703125 C5.36871094 0.09738281 5.36871094 0.09738281 7.1875 0.125 C8.10273438 0.14820313 9.01796875 0.17140625 9.9609375 0.1953125 C8.9709375 0.6903125 8.9709375 0.6903125 7.9609375 1.1953125 C7.9609375 2.8453125 7.9609375 4.4953125 7.9609375 6.1953125 C4.0009375 6.1953125 0.0409375 6.1953125 -4.0390625 6.1953125 C-4.3690625 4.8753125 -4.6990625 3.5553125 -5.0390625 2.1953125 C-3.0390625 0.1953125 -3.0390625 0.1953125 0 0 Z " fill="#A6A6A6" transform="translate(126.0390625,268.8046875)"/>
<path d="M0 0 C2.64 0 5.28 0 8 0 C8 2.64 8 5.28 8 8 C5.36 8 2.72 8 0 8 C0 5.36 0 2.72 0 0 Z " fill="#E1E1E1" transform="translate(189,164)"/>
<path d="M0 0 C2.64 0 5.28 0 8 0 C8 2.64 8 5.28 8 8 C5.36 8 2.72 8 0 8 C0 5.36 0 2.72 0 0 Z " fill="#E1E1E1" transform="translate(63,164)"/>
<path d="M0 0 C2.64 0 5.28 0 8 0 C8 2.64 8 5.28 8 8 C5.36 8 2.72 8 0 8 C0 5.36 0 2.72 0 0 Z " fill="#E0E0E0" transform="translate(189,127)"/>
<path d="M0 0 C2.64 0 5.28 0 8 0 C8 2.64 8 5.28 8 8 C5.36 8 2.72 8 0 8 C0 5.36 0 2.72 0 0 Z " fill="#E0E0E0" transform="translate(63,127)"/>
<path d="M0 0 C0.7425 0.185625 1.485 0.37125 2.25 0.5625 C4.97391397 0.99584995 6.40770504 0.7406557 9 0 C10 1 10 1 10.0625 4.0625 C10.041875 5.031875 10.02125 6.00125 10 7 C8.1875 7.6875 8.1875 7.6875 6 8 C4.25 6.5625 4.25 6.5625 3 5 C2.67 5.33 2.34 5.66 2 6 C2.66 6.66 3.32 7.32 4 8 C2.35 8 0.7 8 -1 8 C-0.690625 7.401875 -0.38125 6.80375 -0.0625 6.1875 C1.10209704 3.91043228 1.10209704 3.91043228 2 1 C1.34 0.67 0.68 0.34 0 0 Z " fill="#A4A4A4" transform="translate(194,267)"/>
<path d="M0 0 C2.0625 0.4375 2.0625 0.4375 4 1 C4 2.98 4 4.96 4 7 C2.125 7.625 2.125 7.625 0 8 C-0.66 7.34 -1.32 6.68 -2 6 C-1.44444444 1.44444444 -1.44444444 1.44444444 0 0 Z " fill="#989898" transform="translate(188,267)"/>
<path d="M0 0 C3.125 0.375 3.125 0.375 6 1 C6 2.32 6 3.64 6 5 C6.66 5.33 7.32 5.66 8 6 C7.443125 5.814375 6.88625 5.62875 6.3125 5.4375 C3.600867 4.92448835 1.65628961 5.3359276 -1 6 C-1.625 4.125 -1.625 4.125 -2 2 C-1.34 1.34 -0.68 0.68 0 0 Z " fill="#878787" transform="translate(103,269)"/>
<path d="M0 0 C2.97 0 5.94 0 9 0 C8.01 0.495 8.01 0.495 7 1 C7 2.65 7 4.3 7 6 C6.34 6 5.68 6 5 6 C5 5.01 5 4.02 5 3 C3.68 3 2.36 3 1 3 C1 3.66 1 4.32 1 5 C1.99 4.67 2.98 4.34 4 4 C4 4.66 4 5.32 4 6 C2.68 6 1.36 6 0 6 C-1.125 2.25 -1.125 2.25 0 0 Z " fill="#919191" transform="translate(83,269)"/>
<path d="M0 0 C0.66 0 1.32 0 2 0 C2 1.65 2 3.3 2 5 C2.66 5 3.32 5 4 5 C4.33 3.68 4.66 2.36 5 1 C5 1.66 5 2.32 5 3 C5.66 3.33 6.32 3.66 7 4 C6.34 4 5.68 4 5 4 C5 4.99 5 5.98 5 7 C6.32 6.34 7.64 5.68 9 5 C8.67 5.99 8.34 6.98 8 8 C6.68 8 5.36 8 4 8 C4 7.34 4 6.68 4 6 C3.34 6 2.68 6 2 6 C1.67 6.66 1.34 7.32 1 8 C1 7.34 1 6.68 1 6 C0.01 5.67 -0.98 5.34 -2 5 C-1.01 5 -0.02 5 1 5 C0.67 3.35 0.34 1.7 0 0 Z " fill="#464646" transform="translate(159,267)"/>
<path d="M0 0 C2.97 0.495 2.97 0.495 6 1 C6 2.98 6 4.96 6 7 C5.01 6.34 4.02 5.68 3 5 C2.67 5.33 2.34 5.66 2 6 C2.66 6.66 3.32 7.32 4 8 C2.35 8 0.7 8 -1 8 C-0.690625 7.401875 -0.38125 6.80375 -0.0625 6.1875 C1.10209704 3.91043228 1.10209704 3.91043228 2 1 C1.34 0.67 0.68 0.34 0 0 Z " fill="#696969" transform="translate(194,267)"/>
<path d="M0 0 C0.33 0.66 0.66 1.32 1 2 C1.99 2 2.98 2 4 2 C4.33 1.34 4.66 0.68 5 0 C5 0.66 5 1.32 5 2 C5.66 2.33 6.32 2.66 7 3 C6.34 3 5.68 3 5 3 C5 4.32 5 5.64 5 7 C5.66 7.33 6.32 7.66 7 8 C6.01 8 5.02 8 4 8 C4 6.35 4 4.7 4 3 C3.01 3 2.02 3 1 3 C1 4.32 1 5.64 1 7 C1.66 7.33 2.32 7.66 3 8 C2.01 8 1.02 8 0 8 C0 5.36 0 2.72 0 0 Z " fill="#4C4C4C" transform="translate(75,267)"/>
<path d="M0 0 C2.64 0 5.28 0 8 0 C7.01 0.495 7.01 0.495 6 1 C6 2.65 6 4.3 6 6 C5.01 5.67 4.02 5.34 3 5 C2.67 4.01 2.34 3.02 2 2 C1.34 1.34 0.68 0.68 0 0 Z " fill="#777777" transform="translate(128,269)"/>
<path d="M0 0 C1.32 0.33 2.64 0.66 4 1 C3.67 2.65 3.34 4.3 3 6 C2.01 6.33 1.02 6.66 0 7 C0 4.69 0 2.38 0 0 Z " fill="#ACACAC" transform="translate(164,267)"/>
<path d="M0 0 C1.32 0 2.64 0 4 0 C3.43628586 3.26954202 2.50037734 4.82575883 0 7 C-1.125 2.25 -1.125 2.25 0 0 Z " fill="#E5E5E5" transform="translate(168,268)"/>
<path d="M0 0 C1.32 0 2.64 0 4 0 C3.43628586 3.26954202 2.50037734 4.82575883 0 7 C0 4.69 0 2.38 0 0 Z " fill="#E4E4E4" transform="translate(192,268)"/>
<path d="M0 0 C3 1 3 1 4 3 C3.01 3 2.02 3 1 3 C1 3.66 1 4.32 1 5 C1.99 4.67 2.98 4.34 4 4 C4 4.66 4 5.32 4 6 C2.68 6 1.36 6 0 6 C-1.125 2.25 -1.125 2.25 0 0 Z " fill="#5A5A5A" transform="translate(83,269)"/>
</svg>
